%TF.GenerationSoftware,KiCad,Pcbnew,8.0.3*%
%TF.CreationDate,2026-08-04T14:47:34+05:30*%
%TF.ProjectId,flight_controller_rev2,666c6967-6874-45f6-936f-6e74726f6c6c,rev?*%
%TF.SameCoordinates,Original*%
%TF.FileFunction,Copper,L4,Bot*%
%TF.FilePolarity,Positive*%
%FSLAX46Y46*%
G04 Gerber Fmt 4.6, Leading zero omitted, Abs format (unit mm)*
G04 Created by KiCad (PCBNEW 8.0.3) date 2026-08-04 14:47:34*
%MOMM*%
%LPD*%
G01*
G04 APERTURE LIST*
%TA.AperFunction,ComponentPad*%
%ADD10O,2.100000X1.000000*%
%TD*%
%TA.AperFunction,ComponentPad*%
%ADD11O,1.800000X1.000000*%
%TD*%
%TA.AperFunction,ComponentPad*%
%ADD12R,1.700000X1.700000*%
%TD*%
%TA.AperFunction,ComponentPad*%
%ADD13O,1.700000X1.700000*%
%TD*%
%TA.AperFunction,ComponentPad*%
%ADD14R,2.000000X2.000000*%
%TD*%
%TA.AperFunction,ComponentPad*%
%ADD15C,2.000000*%
%TD*%
%TA.AperFunction,HeatsinkPad*%
%ADD16C,0.600000*%
%TD*%
%TA.AperFunction,ComponentPad*%
%ADD17C,1.400000*%
%TD*%
%TA.AperFunction,ComponentPad*%
%ADD18R,3.500000X3.500000*%
%TD*%
%TA.AperFunction,ComponentPad*%
%ADD19C,3.500000*%
%TD*%
%TA.AperFunction,ViaPad*%
%ADD20C,0.450000*%
%TD*%
%TA.AperFunction,ViaPad*%
%ADD21C,0.600000*%
%TD*%
%TA.AperFunction,ViaPad*%
%ADD22C,1.000000*%
%TD*%
%TA.AperFunction,ViaPad*%
%ADD23C,0.800000*%
%TD*%
%TA.AperFunction,Conductor*%
%ADD24C,0.500000*%
%TD*%
%TA.AperFunction,Conductor*%
%ADD25C,1.200000*%
%TD*%
%TA.AperFunction,Conductor*%
%ADD26C,0.200000*%
%TD*%
%TA.AperFunction,Conductor*%
%ADD27C,0.600000*%
%TD*%
G04 APERTURE END LIST*
D10*
%TO.P,J9,S1,SHIELD*%
%TO.N,GND*%
X159015000Y-92030000D03*
D11*
X154835000Y-92030000D03*
D10*
X159015000Y-100670000D03*
D11*
X154835000Y-100670000D03*
%TD*%
D12*
%TO.P,J5,1,Pin_1*%
%TO.N,ESC1*%
X158300000Y-61475000D03*
D13*
%TO.P,J5,2,Pin_2*%
%TO.N,ESC2*%
X158300000Y-64015000D03*
%TO.P,J5,3,Pin_3*%
%TO.N,ESC3*%
X158300000Y-66555000D03*
%TO.P,J5,4,Pin_4*%
%TO.N,ESC4*%
X158300000Y-69095000D03*
%TO.P,J5,5,Pin_5*%
%TO.N,GND*%
X158300000Y-71635000D03*
%TD*%
D12*
%TO.P,J6,1,Pin_1*%
%TO.N,+3.3V*%
X171125000Y-77875000D03*
D13*
%TO.P,J6,2,Pin_2*%
%TO.N,GND*%
X173665000Y-77875000D03*
%TO.P,J6,3,Pin_3*%
%TO.N,GPS TX*%
X176205000Y-77875000D03*
%TO.P,J6,4,Pin_4*%
%TO.N,GPS RX*%
X178745000Y-77875000D03*
%TD*%
D14*
%TO.P,BZ1,1,+*%
%TO.N,Net-(BZ1-+)*%
X151800000Y-78425000D03*
D15*
%TO.P,BZ1,2,-*%
%TO.N,+3V3*%
X151800000Y-86025000D03*
%TD*%
D12*
%TO.P,J3,1,Pin_1*%
%TO.N,iBUS{slash}SBUS RX*%
X202575000Y-66075000D03*
D13*
%TO.P,J3,2,Pin_2*%
%TO.N,+5V*%
X205115000Y-66075000D03*
%TO.P,J3,3,Pin_3*%
%TO.N,GND*%
X207655000Y-66075000D03*
%TD*%
D16*
%TO.P,U1,39,GND*%
%TO.N,GND*%
X167775000Y-64095000D03*
X167775000Y-65495000D03*
X168475000Y-63395000D03*
X168475000Y-64795000D03*
X168475000Y-66195000D03*
X169150000Y-64095000D03*
X169150000Y-65495000D03*
X169875000Y-63395000D03*
X169875000Y-64795000D03*
X169875000Y-66195000D03*
X170575000Y-64095000D03*
X170575000Y-65495000D03*
%TD*%
D17*
%TO.P,J1,*%
%TO.N,*%
X187475000Y-59850000D03*
X198475000Y-59850000D03*
D18*
%TO.P,J1,1,Pin_1*%
%TO.N,+BATT*%
X195475000Y-69850000D03*
D19*
%TO.P,J1,2,Pin_2*%
%TO.N,GND*%
X190475000Y-69850000D03*
%TD*%
D12*
%TO.P,J4,1,Pin_1*%
%TO.N,CH1*%
X183450000Y-76085000D03*
D13*
%TO.P,J4,2,Pin_2*%
%TO.N,CH2*%
X183450000Y-73545000D03*
%TO.P,J4,3,Pin_3*%
%TO.N,CH3*%
X183450000Y-71005000D03*
%TO.P,J4,4,Pin_4*%
%TO.N,CH4*%
X183450000Y-68465000D03*
%TO.P,J4,5,Pin_5*%
%TO.N,CH5*%
X183450000Y-65925000D03*
%TO.P,J4,6,Pin_6*%
%TO.N,CH6*%
X183450000Y-63385000D03*
%TO.P,J4,7,Pin_7*%
%TO.N,+5V*%
X183450000Y-60845000D03*
%TO.P,J4,8,Pin_8*%
%TO.N,GND*%
X183450000Y-58305000D03*
%TD*%
D20*
%TO.N,+3.3V*%
X177000000Y-87525000D03*
X181150000Y-86025000D03*
D21*
%TO.N,Net-(U6-EN)*%
X197567300Y-90961200D03*
X194930000Y-85620000D03*
%TO.N,Net-(J9-D--PadA7)*%
X162485300Y-92025000D03*
X158512900Y-95600000D03*
%TO.N,Net-(J9-D+-PadA6)*%
X166681400Y-91969400D03*
X163222000Y-97666000D03*
%TO.N,Net-(U6-COMP)*%
X189005600Y-94437800D03*
X183041300Y-85158200D03*
D20*
%TO.N,RX*%
X169226600Y-90774400D03*
X173512700Y-62155000D03*
%TO.N,TX*%
X169784300Y-94342500D03*
X174782700Y-60885000D03*
D21*
%TO.N,INT*%
X180116800Y-86809100D03*
X160663000Y-63480600D03*
D20*
%TO.N,SCL*%
X181144700Y-60989100D03*
X180098200Y-80148200D03*
%TO.N,SDA*%
X175946600Y-82825000D03*
X176846600Y-80238900D03*
X178233100Y-63425000D03*
D21*
%TO.N,LED_STAT*%
X174876600Y-71723200D03*
X172349400Y-88540200D03*
%TO.N,Net-(U1-IO0)*%
X169560900Y-71801100D03*
X168771600Y-73281900D03*
%TO.N,Net-(U1-EN)*%
X155363500Y-64873900D03*
X155956000Y-74934200D03*
D20*
%TO.N,GPS TX*%
X178097300Y-68505000D03*
%TO.N,GPS RX*%
X180614500Y-69873400D03*
D21*
%TO.N,CH3*%
X177581800Y-67669000D03*
%TO.N,Net-(D2-DIN)*%
X170215800Y-84219400D03*
X173827800Y-88402800D03*
D22*
%TO.N,+BATT*%
X174548000Y-85883000D03*
D21*
%TO.N,Net-(U3-V3)*%
X166187000Y-94241300D03*
X162230800Y-88080500D03*
%TO.N,SENOR_VP*%
X166183000Y-89300000D03*
X163186000Y-60885000D03*
D23*
%TO.N,+5V*%
X163466600Y-84226100D03*
X205287700Y-77422900D03*
D21*
%TO.N,+3.3V*%
X165447700Y-87100000D03*
X167355100Y-82974200D03*
X164209600Y-78571200D03*
X171782100Y-91802500D03*
X176087314Y-89512314D03*
X197089000Y-77273900D03*
%TO.N,/VIN*%
X187147200Y-81735700D03*
X189072500Y-90555000D03*
X193919600Y-87349600D03*
X198201800Y-97159900D03*
%TO.N,GND*%
X158265200Y-85860000D03*
%TD*%
D24*
%TO.N,+3.3V*%
X177100000Y-87700000D02*
X178740900Y-86059100D01*
X177100000Y-87625000D02*
X177000000Y-87525000D01*
X176087314Y-88712686D02*
X177100000Y-87700000D01*
X177100000Y-87700000D02*
X177100000Y-87625000D01*
X181308900Y-86059100D02*
X181625600Y-86375800D01*
X178740900Y-86059100D02*
X181308900Y-86059100D01*
X176087314Y-89512314D02*
X176087314Y-88712686D01*
X181500800Y-86375800D02*
X181150000Y-86025000D01*
X181625600Y-86375800D02*
X181500800Y-86375800D01*
D25*
%TO.N,+BATT*%
X177050000Y-83950000D02*
X175117000Y-85883000D01*
X181315800Y-83950000D02*
X177050000Y-83950000D01*
X195415800Y-69850000D02*
X181315800Y-83950000D01*
X175117000Y-85883000D02*
X174548000Y-85883000D01*
X195475000Y-69850000D02*
X195415800Y-69850000D01*
D26*
%TO.N,Net-(U6-EN)*%
X197567300Y-88257300D02*
X194930000Y-85620000D01*
X197567300Y-90961200D02*
X197567300Y-88257300D01*
%TO.N,Net-(J9-D--PadA7)*%
X158910400Y-95599900D02*
X162485300Y-92025000D01*
X158512900Y-95599900D02*
X158910400Y-95599900D01*
X158512900Y-95600000D02*
X158512900Y-95599900D01*
%TO.N,Net-(J9-D+-PadA6)*%
X166788800Y-92076800D02*
X166681400Y-91969400D01*
X166788800Y-94490500D02*
X166788800Y-92076800D01*
X163613300Y-97666000D02*
X166788800Y-94490500D01*
X163222000Y-97666000D02*
X163613300Y-97666000D01*
%TO.N,Net-(U6-COMP)*%
X183041300Y-88473500D02*
X183041300Y-85158200D01*
X189005600Y-94437800D02*
X183041300Y-88473500D01*
%TO.N,RX*%
X169212400Y-90760200D02*
X169226600Y-90774400D01*
X169212400Y-74840000D02*
X169212400Y-90760200D01*
X173512700Y-70539700D02*
X169212400Y-74840000D01*
X173512700Y-62155000D02*
X173512700Y-70539700D01*
%TO.N,TX*%
X169784300Y-84638700D02*
X169784300Y-94342500D01*
X169614100Y-84468500D02*
X169784300Y-84638700D01*
X169614100Y-75994600D02*
X169614100Y-84468500D01*
X174782700Y-70826000D02*
X169614100Y-75994600D01*
X174782700Y-60885000D02*
X174782700Y-70826000D01*
%TO.N,INT*%
X171283400Y-95642500D02*
X180116800Y-86809100D01*
X169264800Y-95642500D02*
X171283400Y-95642500D01*
X167483400Y-93861100D02*
X169264800Y-95642500D01*
X167483400Y-91911500D02*
X167483400Y-93861100D01*
X160663000Y-85091100D02*
X167483400Y-91911500D01*
X160663000Y-63480600D02*
X160663000Y-85091100D01*
%TO.N,SCL*%
X180098200Y-75248800D02*
X180098200Y-80148200D01*
X183072000Y-72275000D02*
X180098200Y-75248800D01*
X183844100Y-72275000D02*
X183072000Y-72275000D01*
X184601700Y-71517400D02*
X183844100Y-72275000D01*
X184601700Y-70508700D02*
X184601700Y-71517400D01*
X183828000Y-69735000D02*
X184601700Y-70508700D01*
X183055900Y-69735000D02*
X183828000Y-69735000D01*
X181144700Y-67823800D02*
X183055900Y-69735000D01*
X181144700Y-60989100D02*
X181144700Y-67823800D01*
%TO.N,SDA*%
X178634800Y-63826700D02*
X178233100Y-63425000D01*
X178634800Y-73050000D02*
X178634800Y-63826700D01*
X177475000Y-74209800D02*
X178634800Y-73050000D01*
X177475000Y-79610500D02*
X177475000Y-74209800D01*
X176846600Y-80238900D02*
X177475000Y-79610500D01*
X176846600Y-81925000D02*
X175946600Y-82825000D01*
X176846600Y-80238900D02*
X176846600Y-81925000D01*
%TO.N,LED_STAT*%
X172815300Y-89006100D02*
X172349400Y-88540200D01*
X174107300Y-89006100D02*
X172815300Y-89006100D01*
X174460300Y-88653100D02*
X174107300Y-89006100D01*
X174460300Y-87161200D02*
X174460300Y-88653100D01*
X173559700Y-86260600D02*
X174460300Y-87161200D01*
X173559700Y-84219400D02*
X173559700Y-86260600D01*
X174876600Y-82902500D02*
X173559700Y-84219400D01*
X174876600Y-71723200D02*
X174876600Y-82902500D01*
%TO.N,Net-(U1-IO0)*%
X169560900Y-72492600D02*
X169560900Y-71801100D01*
X168771600Y-73281900D02*
X169560900Y-72492600D01*
%TO.N,Net-(U1-EN)*%
X155956000Y-65466400D02*
X155363500Y-64873900D01*
X155956000Y-74934200D02*
X155956000Y-65466400D01*
%TO.N,GPS TX*%
X176205000Y-70397300D02*
X178097300Y-68505000D01*
X176205000Y-77875000D02*
X176205000Y-70397300D01*
%TO.N,GPS RX*%
X179036500Y-71451400D02*
X180614500Y-69873400D01*
X179036500Y-76431800D02*
X179036500Y-71451400D01*
X178745000Y-76723300D02*
X179036500Y-76431800D01*
X178745000Y-77875000D02*
X178745000Y-76723300D01*
%TO.N,CH3*%
X177581800Y-63287900D02*
X177581800Y-67669000D01*
X177999500Y-62870200D02*
X177581800Y-63287900D01*
X178427100Y-62870200D02*
X177999500Y-62870200D01*
X180089300Y-64532400D02*
X178427100Y-62870200D01*
X180089300Y-67644300D02*
X180089300Y-64532400D01*
X183450000Y-71005000D02*
X180089300Y-67644300D01*
%TO.N,Net-(D2-DIN)*%
X170215800Y-84790800D02*
X173827800Y-88402800D01*
X170215800Y-84219400D02*
X170215800Y-84790800D01*
%TO.N,Net-(U3-V3)*%
X162230800Y-90285100D02*
X166187000Y-94241300D01*
X162230800Y-88080500D02*
X162230800Y-90285100D01*
%TO.N,SENOR_VP*%
X162762400Y-85879400D02*
X166183000Y-89300000D01*
X162762400Y-61308600D02*
X162762400Y-85879400D01*
X163186000Y-60885000D02*
X162762400Y-61308600D01*
D27*
%TO.N,+5V*%
X183450000Y-60845000D02*
X182098300Y-60845000D01*
X205115000Y-77250200D02*
X205287700Y-77422900D01*
X205115000Y-66075000D02*
X205115000Y-77250200D01*
X163407900Y-84167400D02*
X163466600Y-84226100D01*
X163407900Y-76820400D02*
X163407900Y-84167400D01*
X172594200Y-67634100D02*
X163407900Y-76820400D01*
X172594200Y-61993900D02*
X172594200Y-67634100D01*
X174432700Y-60155400D02*
X172594200Y-61993900D01*
X181408700Y-60155400D02*
X174432700Y-60155400D01*
X182098300Y-60845000D02*
X181408700Y-60155400D01*
D24*
%TO.N,+3.3V*%
X167355100Y-81716700D02*
X167355100Y-82974200D01*
X164209600Y-78571200D02*
X167355100Y-81716700D01*
X165447700Y-84881600D02*
X165447700Y-87100000D01*
X167355100Y-82974200D02*
X165447700Y-84881600D01*
X168071100Y-89723400D02*
X165447700Y-87100000D01*
X168071100Y-93589100D02*
X168071100Y-89723400D01*
X169525300Y-95043300D02*
X168071100Y-93589100D01*
X170079500Y-95043300D02*
X169525300Y-95043300D01*
X171782100Y-93340700D02*
X170079500Y-95043300D01*
X171782100Y-91802500D02*
X171782100Y-93340700D01*
X181625600Y-85509700D02*
X181625600Y-86375800D01*
X189861400Y-77273900D02*
X181625600Y-85509700D01*
X197089000Y-77273900D02*
X189861400Y-77273900D01*
D26*
%TO.N,/VIN*%
X189072500Y-90555000D02*
X189072500Y-87349600D01*
X189072500Y-87349600D02*
X193919600Y-87349600D01*
X193919600Y-92877700D02*
X198201800Y-97159900D01*
X193919600Y-87349600D02*
X193919600Y-92877700D01*
X189072500Y-83661000D02*
X187147200Y-81735700D01*
X189072500Y-87349600D02*
X189072500Y-83661000D01*
%TO.N,GND*%
X183718500Y-59456700D02*
X183450000Y-59456700D01*
X190475000Y-66213200D02*
X183718500Y-59456700D01*
X190475000Y-69850000D02*
X190475000Y-66213200D01*
X183450000Y-58305000D02*
X183450000Y-59456700D01*
X170575000Y-65495000D02*
X169875000Y-64795000D01*
X170575000Y-64095000D02*
X169875000Y-63395000D01*
X169150000Y-65520000D02*
X169150000Y-65495000D01*
X168475000Y-66195000D02*
X169150000Y-65520000D01*
X167800000Y-65495000D02*
X168475000Y-64820000D01*
X167775000Y-65495000D02*
X167800000Y-65495000D01*
X169150000Y-65495000D02*
X168475000Y-64820000D01*
X168475000Y-64820000D02*
X168475000Y-64795000D01*
X169150000Y-64120000D02*
X169150000Y-64095000D01*
X168475000Y-64795000D02*
X169150000Y-64120000D01*
X167800000Y-64095000D02*
X168475000Y-63420000D01*
X167775000Y-64095000D02*
X167800000Y-64095000D01*
X169150000Y-64095000D02*
X168475000Y-63420000D01*
X168475000Y-63420000D02*
X168475000Y-63395000D01*
X159015000Y-92030000D02*
X157663300Y-92030000D01*
X158300000Y-71635000D02*
X158300000Y-72786700D01*
X154835000Y-92030000D02*
X156036700Y-92030000D01*
X154835000Y-100670000D02*
X156036700Y-100670000D01*
X156036700Y-92030000D02*
X156036700Y-100670000D01*
X156036700Y-92030000D02*
X157663300Y-92030000D01*
X158568500Y-70483300D02*
X158300000Y-70483300D01*
X159689800Y-69362000D02*
X158568500Y-70483300D01*
X159689800Y-63479500D02*
X159689800Y-69362000D01*
X162892000Y-60277300D02*
X159689800Y-63479500D01*
X163957300Y-60277300D02*
X162892000Y-60277300D01*
X167775000Y-64095000D02*
X163957300Y-60277300D01*
X158300000Y-71635000D02*
X158300000Y-70483300D01*
X157663300Y-86461900D02*
X157663300Y-92030000D01*
X158265200Y-85860000D02*
X157663300Y-86461900D01*
X158265200Y-72821500D02*
X158265200Y-85860000D01*
X158300000Y-72786700D02*
X158265200Y-72821500D01*
%TD*%
%TA.AperFunction,Conductor*%
%TO.N,GND*%
G36*
X173915000Y-79205633D02*
G01*
X174120007Y-79150704D01*
X174189857Y-79152367D01*
X174247719Y-79191530D01*
X174275223Y-79255758D01*
X174276100Y-79270479D01*
X174276100Y-82602402D01*
X174256415Y-82669441D01*
X174239781Y-82690083D01*
X173079181Y-83850682D01*
X173079177Y-83850687D01*
X173031134Y-83933902D01*
X173031134Y-83933903D01*
X173000123Y-83987614D01*
X173000123Y-83987615D01*
X172959199Y-84140343D01*
X172959199Y-84140345D01*
X172959199Y-84308446D01*
X172959200Y-84308459D01*
X172959200Y-86173930D01*
X172959199Y-86173948D01*
X172959199Y-86339656D01*
X172965816Y-86364351D01*
X172964153Y-86434201D01*
X172924990Y-86492063D01*
X172860762Y-86519567D01*
X172791859Y-86507980D01*
X172758360Y-86484125D01*
X170971168Y-84696933D01*
X170937683Y-84635610D01*
X170941808Y-84568297D01*
X171001166Y-84398662D01*
X171001169Y-84398649D01*
X171021365Y-84219403D01*
X171021365Y-84219396D01*
X171001169Y-84040150D01*
X171001168Y-84040145D01*
X170963992Y-83933902D01*
X170941589Y-83869878D01*
X170929530Y-83850687D01*
X170845615Y-83717137D01*
X170718062Y-83589584D01*
X170565323Y-83493611D01*
X170395054Y-83434031D01*
X170395050Y-83434030D01*
X170324716Y-83426106D01*
X170260302Y-83399039D01*
X170220747Y-83341444D01*
X170214600Y-83302886D01*
X170214600Y-79349499D01*
X170234285Y-79282460D01*
X170287089Y-79236705D01*
X170338595Y-79225499D01*
X172022872Y-79225499D01*
X172082483Y-79219091D01*
X172217331Y-79168796D01*
X172332546Y-79082546D01*
X172418796Y-78967331D01*
X172468002Y-78835401D01*
X172509872Y-78779468D01*
X172575337Y-78755050D01*
X172643610Y-78769901D01*
X172671865Y-78791053D01*
X172793917Y-78913105D01*
X172987421Y-79048600D01*
X173201507Y-79148429D01*
X173201516Y-79148433D01*
X173415000Y-79205634D01*
X173415000Y-78308012D01*
X173472007Y-78340925D01*
X173599174Y-78375000D01*
X173730826Y-78375000D01*
X173857993Y-78340925D01*
X173915000Y-78308012D01*
X173915000Y-79205633D01*
G37*
%TD.AperFunction*%
%TA.AperFunction,Conductor*%
G36*
X174195434Y-72365014D02*
G01*
X174251367Y-72406886D01*
X174275784Y-72472350D01*
X174276100Y-72481196D01*
X174276100Y-76479520D01*
X174256415Y-76546559D01*
X174203611Y-76592314D01*
X174134453Y-76602258D01*
X174120007Y-76599295D01*
X173915000Y-76544363D01*
X173915000Y-77441988D01*
X173857993Y-77409075D01*
X173730826Y-77375000D01*
X173599174Y-77375000D01*
X173472007Y-77409075D01*
X173415000Y-77441988D01*
X173415000Y-76544364D01*
X173414999Y-76544364D01*
X173201513Y-76601567D01*
X173201507Y-76601570D01*
X172987422Y-76701399D01*
X172987420Y-76701400D01*
X172793926Y-76836886D01*
X172671865Y-76958947D01*
X172610542Y-76992431D01*
X172540850Y-76987447D01*
X172484917Y-76945575D01*
X172468002Y-76914598D01*
X172418797Y-76782671D01*
X172418793Y-76782664D01*
X172332547Y-76667455D01*
X172332544Y-76667452D01*
X172217335Y-76581206D01*
X172217328Y-76581202D01*
X172082482Y-76530908D01*
X172082483Y-76530908D01*
X172022883Y-76524501D01*
X172022881Y-76524500D01*
X172022873Y-76524500D01*
X172022865Y-76524500D01*
X170338600Y-76524500D01*
X170271561Y-76504815D01*
X170225806Y-76452011D01*
X170214600Y-76400500D01*
X170214600Y-76294696D01*
X170234285Y-76227657D01*
X170250914Y-76207020D01*
X174064419Y-72393514D01*
X174125742Y-72360030D01*
X174195434Y-72365014D01*
G37*
%TD.AperFunction*%
%TA.AperFunction,Conductor*%
G36*
X146618039Y-49095185D02*
G01*
X146663794Y-49147989D01*
X146675000Y-49199500D01*
X146675000Y-55775000D01*
X194675000Y-55775000D01*
X194675000Y-49199500D01*
X194694685Y-49132461D01*
X194747489Y-49086706D01*
X194799000Y-49075500D01*
X212500500Y-49075500D01*
X212567539Y-49095185D01*
X212613294Y-49147989D01*
X212624500Y-49199500D01*
X212624500Y-101951380D01*
X212604815Y-102018419D01*
X212552011Y-102064174D01*
X212500816Y-102075380D01*
X203039000Y-102099500D01*
X144224500Y-102099500D01*
X144157461Y-102079815D01*
X144111706Y-102027011D01*
X144100500Y-101975500D01*
X144100500Y-100420000D01*
X153465138Y-100420000D01*
X154268012Y-100420000D01*
X154250795Y-100429940D01*
X154194940Y-100485795D01*
X154155444Y-100554204D01*
X154135000Y-100630504D01*
X154135000Y-100709496D01*
X154155444Y-100785796D01*
X154194940Y-100854205D01*
X154250795Y-100910060D01*
X154268012Y-100920000D01*
X153465138Y-100920000D01*
X153473430Y-100961690D01*
X153473430Y-100961692D01*
X153548807Y-101143671D01*
X153548814Y-101143684D01*
X153658248Y-101307462D01*
X153658251Y-101307466D01*
X153797533Y-101446748D01*
X153797537Y-101446751D01*
X153961315Y-101556185D01*
X153961328Y-101556192D01*
X154143306Y-101631569D01*
X154143318Y-101631572D01*
X154336504Y-101669999D01*
X154336508Y-101670000D01*
X154585000Y-101670000D01*
X154585000Y-100970000D01*
X155085000Y-100970000D01*
X155085000Y-101670000D01*
X155333492Y-101670000D01*
X155333495Y-101669999D01*
X155526681Y-101631572D01*
X155526693Y-101631569D01*
X155708671Y-101556192D01*
X155708684Y-101556185D01*
X155872462Y-101446751D01*
X155872466Y-101446748D01*
X156011748Y-101307466D01*
X156011751Y-101307462D01*
X156121185Y-101143684D01*
X156121192Y-101143671D01*
X156196569Y-100961692D01*
X156196569Y-100961690D01*
X156204862Y-100920000D01*
X155401988Y-100920000D01*
X155419205Y-100910060D01*
X155475060Y-100854205D01*
X155514556Y-100785796D01*
X155535000Y-100709496D01*
X155535000Y-100630504D01*
X155514556Y-100554204D01*
X155475060Y-100485795D01*
X155419205Y-100429940D01*
X155401988Y-100420000D01*
X156204862Y-100420000D01*
X157495138Y-100420000D01*
X158298012Y-100420000D01*
X158280795Y-100429940D01*
X158224940Y-100485795D01*
X158185444Y-100554204D01*
X158165000Y-100630504D01*
X158165000Y-100709496D01*
X158185444Y-100785796D01*
X158224940Y-100854205D01*
X158280795Y-100910060D01*
X158298012Y-100920000D01*
X157495138Y-100920000D01*
X157503430Y-100961690D01*
X157503430Y-100961692D01*
X157578807Y-101143671D01*
X157578814Y-101143684D01*
X157688248Y-101307462D01*
X157688251Y-101307466D01*
X157827533Y-101446748D01*
X157827537Y-101446751D01*
X157991315Y-101556185D01*
X157991328Y-101556192D01*
X158173306Y-101631569D01*
X158173318Y-101631572D01*
X158366504Y-101669999D01*
X158366508Y-101670000D01*
X158765000Y-101670000D01*
X158765000Y-100970000D01*
X159265000Y-100970000D01*
X159265000Y-101670000D01*
X159663492Y-101670000D01*
X159663495Y-101669999D01*
X159856681Y-101631572D01*
X159856693Y-101631569D01*
X160038671Y-101556192D01*
X160038684Y-101556185D01*
X160202462Y-101446751D01*
X160202466Y-101446748D01*
X160341748Y-101307466D01*
X160341751Y-101307462D01*
X160451185Y-101143684D01*
X160451192Y-101143671D01*
X160526569Y-100961692D01*
X160526569Y-100961690D01*
X160534862Y-100920000D01*
X159731988Y-100920000D01*
X159749205Y-100910060D01*
X159805060Y-100854205D01*
X159844556Y-100785796D01*
X159865000Y-100709496D01*
X159865000Y-100630504D01*
X159844556Y-100554204D01*
X159805060Y-100485795D01*
X159749205Y-100429940D01*
X159731988Y-100420000D01*
X160534862Y-100420000D01*
X160526569Y-100378309D01*
X160526569Y-100378307D01*
X160451192Y-100196328D01*
X160451185Y-100196315D01*
X160341751Y-100032537D01*
X160341748Y-100032533D01*
X160202466Y-99893251D01*
X160202462Y-99893248D01*
X160038684Y-99783814D01*
X160038671Y-99783807D01*
X159856693Y-99708430D01*
X159856681Y-99708427D01*
X159663495Y-99670000D01*
X159265000Y-99670000D01*
X159265000Y-100370000D01*
X158765000Y-100370000D01*
X158765000Y-99750955D01*
X158784685Y-99683916D01*
X158819735Y-99650496D01*
X158818933Y-99649451D01*
X158825377Y-99644504D01*
X158825384Y-99644501D01*
X158919501Y-99550384D01*
X158986051Y-99435116D01*
X159020500Y-99306550D01*
X159020500Y-99173450D01*
X158986051Y-99044884D01*
X158919501Y-98929616D01*
X158825384Y-98835499D01*
X158710116Y-98768949D01*
X158581550Y-98734500D01*
X158448450Y-98734500D01*
X158319884Y-98768949D01*
X158319881Y-98768950D01*
X158204619Y-98835497D01*
X158204613Y-98835501D01*
X158110501Y-98929613D01*
X158110497Y-98929619D01*
X158043950Y-99044881D01*
X158043949Y-99044884D01*
X158009500Y-99173450D01*
X158009500Y-99306550D01*
X158043949Y-99435116D01*
X158110499Y-99550384D01*
X158110503Y-99550388D01*
X158115446Y-99556830D01*
X158114096Y-99557865D01*
X158142911Y-99610634D01*
X158137927Y-99680326D01*
X158096055Y-99736259D01*
X158069198Y-99751553D01*
X157991325Y-99783809D01*
X157991315Y-99783814D01*
X157827537Y-99893248D01*
X157827533Y-99893251D01*
X157688251Y-100032533D01*
X157688248Y-100032537D01*
X157578814Y-100196315D01*
X157578807Y-100196328D01*
X157503430Y-100378307D01*
X157503430Y-100378309D01*
X157495138Y-100420000D01*
X156204862Y-100420000D01*
X156196569Y-100378309D01*
X156196569Y-100378307D01*
X156121192Y-100196328D01*
X156121185Y-100196315D01*
X156011751Y-100032537D01*
X156011748Y-100032533D01*
X155872466Y-99893251D01*
X155872462Y-99893248D01*
X155708684Y-99783814D01*
X155708671Y-99783807D01*
X155526693Y-99708430D01*
X155526681Y-99708427D01*
X155333495Y-99670000D01*
X155085000Y-99670000D01*
X155085000Y-100370000D01*
X154585000Y-100370000D01*
X154585000Y-99670000D01*
X154336504Y-99670000D01*
X154143318Y-99708427D01*
X154143306Y-99708430D01*
X153961328Y-99783807D01*
X153961315Y-99783814D01*
X153797537Y-99893248D01*
X153797533Y-99893251D01*
X153658251Y-100032533D01*
X153658248Y-100032537D01*
X153548814Y-100196315D01*
X153548807Y-100196328D01*
X153473430Y-100378307D01*
X153473430Y-100378309D01*
X153465138Y-100420000D01*
X144100500Y-100420000D01*
X144100500Y-98083306D01*
X146169500Y-98083306D01*
X146169500Y-98316693D01*
X146169501Y-98316709D01*
X146199964Y-98548100D01*
X146260375Y-98773555D01*
X146349690Y-98989181D01*
X146349695Y-98989192D01*
X146466387Y-99191307D01*
X146466398Y-99191323D01*
X146608475Y-99376482D01*
X146608481Y-99376489D01*
X146773510Y-99541518D01*
X146773517Y-99541524D01*
X146793464Y-99556830D01*
X146958685Y-99683608D01*
X146971382Y-99690939D01*
X147160807Y-99800304D01*
X147160812Y-99800306D01*
X147160815Y-99800308D01*
X147376449Y-99889626D01*
X147601896Y-99950035D01*
X147833300Y-99980500D01*
X147833307Y-99980500D01*
X148066693Y-99980500D01*
X148066700Y-99980500D01*
X148298104Y-99950035D01*
X148523551Y-99889626D01*
X148739185Y-99800308D01*
X148941315Y-99683608D01*
X149126484Y-99541523D01*
X149291523Y-99376484D01*
X149433608Y-99191315D01*
X149550308Y-98989185D01*
X149639626Y-98773551D01*
X149700035Y-98548104D01*
X149730500Y-98316700D01*
X149730500Y-98083300D01*
X149700035Y-97851896D01*
X149639626Y-97626449D01*
X149550308Y-97410815D01*
X149550306Y-97410812D01*
X149550304Y-97410807D01*
X149433612Y-97208692D01*
X149433608Y-97208685D01*
X149392698Y-97155370D01*
X149291524Y-97023517D01*
X149291518Y-97023510D01*
X149126489Y-96858481D01*
X149126482Y-96858475D01*
X148941323Y-96716398D01*
X148941321Y-96716396D01*
X148941315Y-96716392D01*
X148941310Y-96716389D01*
X148941307Y-96716387D01*
X148739192Y-96599695D01*
X148739181Y-96599690D01*
X148523555Y-96510375D01*
X148298100Y-96449964D01*
X148066709Y-96419501D01*
X148066706Y-96419500D01*
X148066700Y-96419500D01*
X147833300Y-96419500D01*
X147833294Y-96419500D01*
X147833290Y-96419501D01*
X147601899Y-96449964D01*
X147376444Y-96510375D01*
X147160818Y-96599690D01*
X147160807Y-96599695D01*
X146958692Y-96716387D01*
X146958676Y-96716398D01*
X146773517Y-96858475D01*
X146773510Y-96858481D01*
X146608481Y-97023510D01*
X146608475Y-97023517D01*
X146466398Y-97208676D01*
X146466387Y-97208692D01*
X146349695Y-97410807D01*
X146349690Y-97410818D01*
X146260375Y-97626444D01*
X146199964Y-97851899D01*
X146169501Y-98083290D01*
X146169500Y-98083306D01*
X144100500Y-98083306D01*
X144100500Y-95599996D01*
X157707335Y-95599996D01*
X157707335Y-95600003D01*
X157727530Y-95779249D01*
X157727531Y-95779254D01*
X157787111Y-95949523D01*
X157825874Y-96011213D01*
X157883084Y-96102262D01*
X158010638Y-96229816D01*
X158163378Y-96325789D01*
X158333645Y-96385368D01*
X158333650Y-96385369D01*
X158512896Y-96405565D01*
X158512900Y-96405565D01*
X158512904Y-96405565D01*
X158692149Y-96385369D01*
X158692152Y-96385368D01*
X158692155Y-96385368D01*
X158862422Y-96325789D01*
X159015162Y-96229816D01*
X159041256Y-96203721D01*
X159096844Y-96171625D01*
X159142185Y-96159477D01*
X159205330Y-96123020D01*
X159279116Y-96080420D01*
X159390920Y-95968616D01*
X159390920Y-95968614D01*
X159401124Y-95958411D01*
X159401128Y-95958406D01*
X162503835Y-92855698D01*
X162565156Y-92822215D01*
X162577611Y-92820163D01*
X162664555Y-92810368D01*
X162834822Y-92750789D01*
X162987562Y-92654816D01*
X163115116Y-92527262D01*
X163211089Y-92374522D01*
X163213279Y-92368264D01*
X163254000Y-92311488D01*
X163318953Y-92285740D01*
X163387515Y-92299196D01*
X163418001Y-92321536D01*
X164411015Y-93314551D01*
X165356298Y-94259834D01*
X165389783Y-94321157D01*
X165391837Y-94333631D01*
X165401630Y-94420549D01*
X165461210Y-94590821D01*
X165554474Y-94739249D01*
X165573474Y-94806486D01*
X165553106Y-94873321D01*
X165537161Y-94892902D01*
X163566116Y-96863947D01*
X163504793Y-96897432D01*
X163437481Y-96893308D01*
X163413602Y-96884952D01*
X163401250Y-96880630D01*
X163222004Y-96860435D01*
X163221996Y-96860435D01*
X163042750Y-96880630D01*
X163042745Y-96880631D01*
X162872476Y-96940211D01*
X162719737Y-97036184D01*
X162592184Y-97163737D01*
X162496211Y-97316476D01*
X162436631Y-97486745D01*
X162436630Y-97486750D01*
X162416435Y-97665996D01*
X162416435Y-97666003D01*
X162436630Y-97845249D01*
X162436631Y-97845254D01*
X162496211Y-98015523D01*
X162592184Y-98168262D01*
X162719738Y-98295816D01*
X162872478Y-98391789D01*
X163042745Y-98451368D01*
X163042750Y-98451369D01*
X163221996Y-98471565D01*
X163222000Y-98471565D01*
X163222004Y-98471565D01*
X163401249Y-98451369D01*
X163401252Y-98451368D01*
X163401255Y-98451368D01*
X163571522Y-98391789D01*
X163724262Y-98295816D01*
X163752491Y-98267586D01*
X163808077Y-98235493D01*
X163845085Y-98225577D01*
X163895204Y-98196639D01*
X163982016Y-98146520D01*
X164045230Y-98083306D01*
X207194500Y-98083306D01*
X207194500Y-98316693D01*
X207194501Y-98316709D01*
X207224964Y-98548100D01*
X207285375Y-98773555D01*
X207374690Y-98989181D01*
X207374695Y-98989192D01*
X207491387Y-99191307D01*
X207491398Y-99191323D01*
X207633475Y-99376482D01*
X207633481Y-99376489D01*
X207798510Y-99541518D01*
X207798517Y-99541524D01*
X207818464Y-99556830D01*
X207983685Y-99683608D01*
X207996382Y-99690939D01*
X208185807Y-99800304D01*
X208185812Y-99800306D01*
X208185815Y-99800308D01*
X208401449Y-99889626D01*
X208626896Y-99950035D01*
X208858300Y-99980500D01*
X208858307Y-99980500D01*
X209091693Y-99980500D01*
X209091700Y-99980500D01*
X209323104Y-99950035D01*
X209548551Y-99889626D01*
X209764185Y-99800308D01*
X209966315Y-99683608D01*
X210151484Y-99541523D01*
X210316523Y-99376484D01*
X210458608Y-99191315D01*
X210575308Y-98989185D01*
X210664626Y-98773551D01*
X210725035Y-98548104D01*
X210755500Y-98316700D01*
X210755500Y-98083300D01*
X210725035Y-97851896D01*
X210664626Y-97626449D01*
X210575308Y-97410815D01*
X210575306Y-97410812D01*
X210575304Y-97410807D01*
X210458612Y-97208692D01*
X210458608Y-97208685D01*
X210417698Y-97155370D01*
X210316524Y-97023517D01*
X210316518Y-97023510D01*
X210151489Y-96858481D01*
X210151482Y-96858475D01*
X209966323Y-96716398D01*
X209966321Y-96716396D01*
X209966315Y-96716392D01*
X209966310Y-96716389D01*
X209966307Y-96716387D01*
X209764192Y-96599695D01*
X209764181Y-96599690D01*
X209548555Y-96510375D01*
X209323100Y-96449964D01*
X209091709Y-96419501D01*
X209091706Y-96419500D01*
X209091700Y-96419500D01*
X208858300Y-96419500D01*
X208858294Y-96419500D01*
X208858290Y-96419501D01*
X208626899Y-96449964D01*
X208401444Y-96510375D01*
X208185818Y-96599690D01*
X208185807Y-96599695D01*
X207983692Y-96716387D01*
X207983676Y-96716398D01*
X207798517Y-96858475D01*
X207798510Y-96858481D01*
X207633481Y-97023510D01*
X207633475Y-97023517D01*
X207491398Y-97208676D01*
X207491387Y-97208692D01*
X207374695Y-97410807D01*
X207374690Y-97410818D01*
X207285375Y-97626444D01*
X207224964Y-97851899D01*
X207194501Y-98083290D01*
X207194500Y-98083306D01*
X164045230Y-98083306D01*
X164093820Y-98034716D01*
X164093820Y-98034714D01*
X164104028Y-98024507D01*
X164104030Y-98024504D01*
X167147306Y-94981228D01*
X167147311Y-94981224D01*
X167157514Y-94971020D01*
X167157516Y-94971020D01*
X167269320Y-94859216D01*
X167320377Y-94770782D01*
X167321335Y-94769121D01*
X167371867Y-94720878D01*
X167440465Y-94707610D01*
X167505347Y-94733535D01*
X167516440Y-94743375D01*
X168779939Y-96006874D01*
X168779949Y-96006885D01*
X168784279Y-96011215D01*
X168784280Y-96011216D01*
X168896084Y-96123020D01*
X168959231Y-96159477D01*
X168982895Y-96173139D01*
X168982897Y-96173141D01*
X169020951Y-96195111D01*
X169033015Y-96202077D01*
X169185743Y-96243001D01*
X169185746Y-96243001D01*
X169351453Y-96243001D01*
X169351469Y-96243000D01*
X171196731Y-96243000D01*
X171196747Y-96243001D01*
X171204343Y-96243001D01*
X171362454Y-96243001D01*
X171362457Y-96243001D01*
X171515185Y-96202077D01*
X171565304Y-96173139D01*
X171652116Y-96123020D01*
X171763920Y-96011216D01*
X171763920Y-96011214D01*
X171774128Y-96001007D01*
X171774130Y-96001004D01*
X180135335Y-87639798D01*
X180196656Y-87606315D01*
X180209111Y-87604263D01*
X180296055Y-87594468D01*
X180466322Y-87534889D01*
X180619062Y-87438916D01*
X180746616Y-87311362D01*
X180842589Y-87158622D01*
X180880485Y-87050322D01*
X180921207Y-86993545D01*
X180986160Y-86967798D01*
X181054721Y-86981254D01*
X181066418Y-86988174D01*
X181145298Y-87040880D01*
X181145311Y-87040887D01*
X181244913Y-87082143D01*
X181281887Y-87097458D01*
X181281891Y-87097458D01*
X181281892Y-87097459D01*
X181426879Y-87126300D01*
X181426882Y-87126300D01*
X181699520Y-87126300D01*
X181797062Y-87106896D01*
X181844513Y-87097458D01*
X181967346Y-87046579D01*
X181981088Y-87040887D01*
X181981088Y-87040886D01*
X181981095Y-87040884D01*
X182104016Y-86958751D01*
X182208551Y-86854216D01*
X182213147Y-86847338D01*
X182213697Y-86846515D01*
X182267308Y-86801709D01*
X182336633Y-86793000D01*
X182399661Y-86823154D01*
X182436381Y-86882596D01*
X182440800Y-86915404D01*
X182440800Y-88386830D01*
X182440799Y-88386848D01*
X182440799Y-88552554D01*
X182440798Y-88552554D01*
X182463899Y-88638768D01*
X182481723Y-88705285D01*
X182500506Y-88737818D01*
X182500507Y-88737820D01*
X182500508Y-88737820D01*
X182560779Y-88842214D01*
X182560781Y-88842217D01*
X182679649Y-88961085D01*
X182679655Y-88961090D01*
X188174898Y-94456333D01*
X188208383Y-94517656D01*
X188210437Y-94530130D01*
X188220230Y-94617049D01*
X188279810Y-94787321D01*
X188333848Y-94873321D01*
X188375784Y-94940062D01*
X188503338Y-95067616D01*
X188656078Y-95163589D01*
X188826345Y-95223168D01*
X188826350Y-95223169D01*
X189005596Y-95243365D01*
X189005600Y-95243365D01*
X189005604Y-95243365D01*
X189184849Y-95223169D01*
X189184852Y-95223168D01*
X189184855Y-95223168D01*
X189355122Y-95163589D01*
X189507862Y-95067616D01*
X189635416Y-94940062D01*
X189731389Y-94787322D01*
X189790968Y-94617055D01*
X189800762Y-94530130D01*
X189811165Y-94437803D01*
X189811165Y-94437796D01*
X189790969Y-94258550D01*
X189790968Y-94258545D01*
X189731388Y-94088276D01*
X189635415Y-93935537D01*
X189507862Y-93807984D01*
X189355121Y-93712010D01*
X189192525Y-93655116D01*
X189184855Y-93652432D01*
X189184854Y-93652431D01*
X189184849Y-93652430D01*
X189097930Y-93642637D01*
X189033516Y-93615570D01*
X189024133Y-93607098D01*
X183678119Y-88261084D01*
X183644634Y-88199761D01*
X183641800Y-88173403D01*
X183641800Y-85740612D01*
X183661485Y-85673573D01*
X183668855Y-85663297D01*
X183671110Y-85660467D01*
X183671116Y-85660462D01*
X183767089Y-85507722D01*
X183826668Y-85337455D01*
X183826668Y-85337452D01*
X183826670Y-85337445D01*
X183846865Y-85158203D01*
X183846865Y-85158196D01*
X183826669Y-84978950D01*
X183826668Y-84978945D01*
X183791585Y-84878684D01*
X183767089Y-84808678D01*
X183766461Y-84807679D01*
X183675360Y-84662692D01*
X183673412Y-84659593D01*
X183654413Y-84592358D01*
X183674781Y-84525522D01*
X183690721Y-84505946D01*
X186201521Y-81995145D01*
X186262842Y-81961662D01*
X186332534Y-81966646D01*
X186388467Y-82008518D01*
X186406241Y-82041872D01*
X186421409Y-82085220D01*
X186517384Y-82237962D01*
X186644938Y-82365516D01*
X186797678Y-82461489D01*
X186967945Y-82521068D01*
X187054869Y-82530861D01*
X187119280Y-82557926D01*
X187128665Y-82566400D01*
X188435681Y-83873416D01*
X188469166Y-83934739D01*
X188472000Y-83961097D01*
X188472000Y-89972587D01*
X188452315Y-90039626D01*
X188444950Y-90049896D01*
X188442686Y-90052734D01*
X188346711Y-90205476D01*
X188287131Y-90375745D01*
X188287130Y-90375750D01*
X188266935Y-90554996D01*
X188266935Y-90555000D01*
X188287130Y-90734249D01*
X188287131Y-90734254D01*
X188346711Y-90904523D01*
X188425554Y-91030000D01*
X188442684Y-91057262D01*
X188570238Y-91184816D01*
X188631504Y-91223312D01*
X188720520Y-91279245D01*
X188722978Y-91280789D01*
X188813120Y-91312331D01*
X188893245Y-91340368D01*
X188893250Y-91340369D01*
X189072496Y-91360565D01*
X189072500Y-91360565D01*
X189072504Y-91360565D01*
X189251749Y-91340369D01*
X189251752Y-91340368D01*
X189251755Y-91340368D01*
X189422022Y-91280789D01*
X189574762Y-91184816D01*
X189702316Y-91057262D01*
X189798289Y-90904522D01*
X189857868Y-90734255D01*
X189860275Y-90712897D01*
X189878065Y-90555000D01*
X189878065Y-90554996D01*
X189857869Y-90375750D01*
X189857868Y-90375745D01*
X189809705Y-90238103D01*
X189798289Y-90205478D01*
X189793860Y-90198430D01*
X189714848Y-90072683D01*
X189702316Y-90052738D01*
X189702314Y-90052736D01*
X189702313Y-90052734D01*
X189700050Y-90049896D01*
X189699159Y-90047715D01*
X189698611Y-90046842D01*
X189698764Y-90046745D01*
X189673644Y-89985209D01*
X189673000Y-89972587D01*
X189673000Y-88074100D01*
X189692685Y-88007061D01*
X189745489Y-87961306D01*
X189797000Y-87950100D01*
X193195100Y-87950100D01*
X193262139Y-87969785D01*
X193307894Y-88022589D01*
X193319100Y-88074100D01*
X193319100Y-92791030D01*
X193319099Y-92791048D01*
X193319099Y-92956754D01*
X193319098Y-92956754D01*
X193360023Y-93109485D01*
X193379421Y-93143084D01*
X193383193Y-93149616D01*
X193439079Y-93246414D01*
X193439081Y-93246417D01*
X193557949Y-93365285D01*
X193557955Y-93365290D01*
X197371098Y-97178433D01*
X197404583Y-97239756D01*
X197406637Y-97252230D01*
X197416430Y-97339149D01*
X197476010Y-97509421D01*
X197549541Y-97626444D01*
X197571984Y-97662162D01*
X197699538Y-97789716D01*
X197852278Y-97885689D01*
X198022545Y-97945268D01*
X198022550Y-97945269D01*
X198201796Y-97965465D01*
X198201800Y-97965465D01*
X198201804Y-97965465D01*
X198381049Y-97945269D01*
X198381052Y-97945268D01*
X198381055Y-97945268D01*
X198551322Y-97885689D01*
X198704062Y-97789716D01*
X198831616Y-97662162D01*
X198927589Y-97509422D01*
X198987168Y-97339155D01*
X198989723Y-97316478D01*
X199007365Y-97159903D01*
X199007365Y-97159896D01*
X198987169Y-96980650D01*
X198987168Y-96980645D01*
X198927589Y-96810378D01*
X198831616Y-96657638D01*
X198704062Y-96530084D01*
X198672694Y-96510374D01*
X198551321Y-96434110D01*
X198381049Y-96374530D01*
X198294130Y-96364737D01*
X198229716Y-96337670D01*
X198220333Y-96329198D01*
X194556419Y-92665284D01*
X194522934Y-92603961D01*
X194520100Y-92577603D01*
X194520100Y-87932012D01*
X194539785Y-87864973D01*
X194547155Y-87854697D01*
X194549410Y-87851867D01*
X194549416Y-87851862D01*
X194645389Y-87699122D01*
X194704968Y-87528855D01*
X194705346Y-87525500D01*
X194725165Y-87349603D01*
X194725165Y-87349596D01*
X194704969Y-87170350D01*
X194704968Y-87170345D01*
X194689556Y-87126300D01*
X194645389Y-87000078D01*
X194634972Y-86983500D01*
X194571570Y-86882596D01*
X194549416Y-86847338D01*
X194421862Y-86719784D01*
X194335634Y-86665603D01*
X194269123Y-86623811D01*
X194098854Y-86564231D01*
X194098849Y-86564230D01*
X193919604Y-86544035D01*
X193919596Y-86544035D01*
X193740350Y-86564230D01*
X193740345Y-86564231D01*
X193570076Y-86623811D01*
X193417336Y-86719785D01*
X193414503Y-86722045D01*
X193412324Y-86722934D01*
X193411442Y-86723489D01*
X193411344Y-86723334D01*
X193349817Y-86748455D01*
X193337188Y-86749100D01*
X189797000Y-86749100D01*
X189729961Y-86729415D01*
X189684206Y-86676611D01*
X189673000Y-86625100D01*
X189673000Y-85619996D01*
X194124435Y-85619996D01*
X194124435Y-85620003D01*
X194144630Y-85799249D01*
X194144631Y-85799254D01*
X194204211Y-85969523D01*
X194291472Y-86108397D01*
X194300184Y-86122262D01*
X194427738Y-86249816D01*
X194580478Y-86345789D01*
X194750745Y-86405368D01*
X194837669Y-86415161D01*
X194902080Y-86442226D01*
X194911465Y-86450700D01*
X196930481Y-88469716D01*
X196963966Y-88531039D01*
X196966800Y-88557397D01*
X196966800Y-90378787D01*
X196947115Y-90445826D01*
X196939750Y-90456096D01*
X196937486Y-90458934D01*
X196841511Y-90611676D01*
X196781931Y-90781945D01*
X196781930Y-90781950D01*
X196761735Y-90961196D01*
X196761735Y-90961203D01*
X196781930Y-91140449D01*
X196781931Y-91140454D01*
X196841511Y-91310723D01*
X196883001Y-91376753D01*
X196937484Y-91463462D01*
X197065038Y-91591016D01*
X197217778Y-91686989D01*
X197364442Y-91738309D01*
X197388045Y-91746568D01*
X197388050Y-91746569D01*
X197567296Y-91766765D01*
X197567300Y-91766765D01*
X197567304Y-91766765D01*
X197746549Y-91746569D01*
X197746552Y-91746568D01*
X197746555Y-91746568D01*
X197916822Y-91686989D01*
X198069562Y-91591016D01*
X198197116Y-91463462D01*
X198293089Y-91310722D01*
X198352668Y-91140455D01*
X198359850Y-91076711D01*
X198372865Y-90961203D01*
X198372865Y-90961196D01*
X198352669Y-90781950D01*
X198352668Y-90781945D01*
X198346956Y-90765620D01*
X198293089Y-90611678D01*
X198197116Y-90458938D01*
X198197114Y-90458936D01*
X198197113Y-90458934D01*
X198194850Y-90456096D01*
X198193959Y-90453915D01*
X198193411Y-90453042D01*
X198193564Y-90452945D01*
X198168444Y-90391409D01*
X198167800Y-90378787D01*
X198167800Y-88178245D01*
X198167800Y-88178243D01*
X198126877Y-88025516D01*
X198072893Y-87932012D01*
X198047824Y-87888590D01*
X198047821Y-87888586D01*
X198047820Y-87888584D01*
X197936016Y-87776780D01*
X197936015Y-87776779D01*
X197931685Y-87772449D01*
X197931674Y-87772439D01*
X195760700Y-85601465D01*
X195727215Y-85540142D01*
X195725163Y-85527686D01*
X195715368Y-85440745D01*
X195655789Y-85270478D01*
X195559816Y-85117738D01*
X195432262Y-84990184D01*
X195414375Y-84978945D01*
X195279523Y-84894211D01*
X195109254Y-84834631D01*
X195109249Y-84834630D01*
X194930004Y-84814435D01*
X194929996Y-84814435D01*
X194750750Y-84834630D01*
X194750745Y-84834631D01*
X194580476Y-84894211D01*
X194427737Y-84990184D01*
X194300184Y-85117737D01*
X194204211Y-85270476D01*
X194144631Y-85440745D01*
X194144630Y-85440750D01*
X194124435Y-85619996D01*
X189673000Y-85619996D01*
X189673000Y-83581945D01*
X189673000Y-83581943D01*
X189632077Y-83429216D01*
X189632073Y-83429209D01*
X189553024Y-83292290D01*
X189553021Y-83292286D01*
X189553020Y-83292284D01*
X189441216Y-83180480D01*
X189441215Y-83180479D01*
X189436885Y-83176149D01*
X189436874Y-83176139D01*
X187977900Y-81717165D01*
X187944415Y-81655842D01*
X187942363Y-81643386D01*
X187932568Y-81556445D01*
X187872989Y-81386178D01*
X187777016Y-81233438D01*
X187649462Y-81105884D01*
X187496720Y-81009909D01*
X187453372Y-80994741D01*
X187396597Y-80954019D01*
X187370850Y-80889066D01*
X187384307Y-80820504D01*
X187406644Y-80790022D01*
X190135949Y-78060719D01*
X190197272Y-78027234D01*
X190223630Y-78024400D01*
X196789028Y-78024400D01*
X196829983Y-78031358D01*
X196909745Y-78059268D01*
X196909750Y-78059269D01*
X197088996Y-78079465D01*
X197089000Y-78079465D01*
X197089004Y-78079465D01*
X197268249Y-78059269D01*
X197268252Y-78059268D01*
X197268255Y-78059268D01*
X197438522Y-77999689D01*
X197591262Y-77903716D01*
X197718816Y-77776162D01*
X197814789Y-77623422D01*
X197874368Y-77453155D01*
X197874369Y-77453149D01*
X197894565Y-77273903D01*
X197894565Y-77273896D01*
X197874369Y-77094650D01*
X197874368Y-77094645D01*
X197834673Y-76981204D01*
X197814789Y-76924378D01*
X197718816Y-76771638D01*
X197591262Y-76644084D01*
X197438523Y-76548111D01*
X197268254Y-76488531D01*
X197268249Y-76488530D01*
X197089004Y-76468335D01*
X197088996Y-76468335D01*
X196909750Y-76488530D01*
X196909745Y-76488531D01*
X196829983Y-76516442D01*
X196789028Y-76523400D01*
X190598104Y-76523400D01*
X190531065Y-76503715D01*
X190485310Y-76450911D01*
X190475366Y-76381753D01*
X190504391Y-76318197D01*
X190510423Y-76311719D01*
X194685323Y-72136818D01*
X194746646Y-72103333D01*
X194773004Y-72100499D01*
X197272871Y-72100499D01*
X197272872Y-72100499D01*
X197332483Y-72094091D01*
X197467331Y-72043796D01*
X197582546Y-71957546D01*
X197668796Y-71842331D01*
X197719091Y-71707483D01*
X197725500Y-71647873D01*
X197725499Y-68052128D01*
X197719091Y-67992517D01*
X197694496Y-67926575D01*
X197668797Y-67857671D01*
X197668793Y-67857664D01*
X197582547Y-67742455D01*
X197582544Y-67742452D01*
X197467335Y-67656206D01*
X197467328Y-67656202D01*
X197332482Y-67605908D01*
X197332483Y-67605908D01*
X197272883Y-67599501D01*
X197272881Y-67599500D01*
X197272873Y-67599500D01*
X197272864Y-67599500D01*
X193677129Y-67599500D01*
X193677123Y-67599501D01*
X193617516Y-67605908D01*
X193482671Y-67656202D01*
X193482664Y-67656206D01*
X193367455Y-67742452D01*
X193367452Y-67742455D01*
X193281206Y-67857664D01*
X193281202Y-67857671D01*
X193230908Y-67992517D01*
X193224501Y-68052116D01*
X193224501Y-68052123D01*
X193224500Y-68052135D01*
X193224500Y-70433595D01*
X193204815Y-70500634D01*
X193188181Y-70521276D01*
X192662740Y-71046716D01*
X192601417Y-71080201D01*
X192531725Y-71075217D01*
X192475792Y-71033345D01*
X192451375Y-70967881D01*
X192463847Y-70904191D01*
X192558187Y-70712888D01*
X192652996Y-70433595D01*
X192652998Y-70433584D01*
X192710535Y-70144324D01*
X192710537Y-70144312D01*
X192729827Y-69850000D01*
X192710537Y-69555687D01*
X192710535Y-69555675D01*
X192652998Y-69266415D01*
X192652994Y-69266400D01*
X192558187Y-68987111D01*
X192427741Y-68722593D01*
X192427734Y-68722580D01*
X192263876Y-68477350D01*
X192234593Y-68443958D01*
X191301524Y-69377027D01*
X191212913Y-69244410D01*
X191080590Y-69112087D01*
X190947971Y-69023474D01*
X191881040Y-68090405D01*
X191847649Y-68061123D01*
X191602419Y-67897265D01*
X191602406Y-67897258D01*
X191337888Y-67766812D01*
X191058599Y-67672005D01*
X191058584Y-67672001D01*
X190769324Y-67614464D01*
X190769312Y-67614462D01*
X190475000Y-67595172D01*
X190180687Y-67614462D01*
X190180675Y-67614464D01*
X189891415Y-67672001D01*
X189891400Y-67672005D01*
X189612111Y-67766812D01*
X189347593Y-67897258D01*
X189347580Y-67897265D01*
X189102346Y-68061126D01*
X189102339Y-68061131D01*
X189068959Y-68090403D01*
X189068959Y-68090405D01*
X190002028Y-69023474D01*
X189869410Y-69112087D01*
X189737087Y-69244410D01*
X189648474Y-69377027D01*
X188715405Y-68443959D01*
X188715403Y-68443959D01*
X188686131Y-68477339D01*
X188686126Y-68477346D01*
X188522265Y-68722580D01*
X188522258Y-68722593D01*
X188391812Y-68987111D01*
X188297005Y-69266400D01*
X188297001Y-69266415D01*
X188239464Y-69555675D01*
X188239462Y-69555687D01*
X188220172Y-69850000D01*
X188239462Y-70144312D01*
X188239464Y-70144324D01*
X188297001Y-70433584D01*
X188297004Y-70433595D01*
X188391812Y-70712888D01*
X188522258Y-70977406D01*
X188522265Y-70977419D01*
X188686123Y-71222649D01*
X188715405Y-71256040D01*
X189648474Y-70322971D01*
X189737087Y-70455590D01*
X189869410Y-70587913D01*
X190002027Y-70676525D01*
X189068958Y-71609593D01*
X189102350Y-71638876D01*
X189347580Y-71802734D01*
X189347593Y-71802741D01*
X189612111Y-71933187D01*
X189891400Y-72027994D01*
X189891415Y-72027998D01*
X190180675Y-72085535D01*
X190180687Y-72085537D01*
X190475000Y-72104827D01*
X190769312Y-72085537D01*
X190769324Y-72085535D01*
X191058584Y-72027998D01*
X191058599Y-72027994D01*
X191337888Y-71933187D01*
X191529191Y-71838847D01*
X191598023Y-71826850D01*
X191662414Y-71853972D01*
X191701920Y-71911600D01*
X191703999Y-71981439D01*
X191671716Y-72037740D01*
X180896277Y-82813181D01*
X180834954Y-82846666D01*
X180808596Y-82849500D01*
X177070696Y-82849500D01*
X177003657Y-82829815D01*
X176957902Y-82777011D01*
X176947958Y-82707853D01*
X176976983Y-82644297D01*
X176983015Y-82637819D01*
X177089974Y-82530860D01*
X177205106Y-82415728D01*
X177205111Y-82415724D01*
X177215314Y-82405520D01*
X177215316Y-82405520D01*
X177327120Y-82293716D01*
X177400157Y-82167211D01*
X177406177Y-82156785D01*
X177447100Y-82004058D01*
X177447100Y-81845943D01*
X177447100Y-80682573D01*
X177466106Y-80616601D01*
X177504389Y-80555675D01*
X177539167Y-80456285D01*
X177560687Y-80394787D01*
X177562465Y-80395409D01*
X177591041Y-80343692D01*
X177955520Y-79979216D01*
X178034577Y-79842285D01*
X178075501Y-79689557D01*
X178075501Y-79531442D01*
X178075501Y-79523847D01*
X178075500Y-79523829D01*
X178075500Y-79247560D01*
X178095185Y-79180521D01*
X178147989Y-79134766D01*
X178217147Y-79124822D01*
X178251900Y-79135176D01*
X178281337Y-79148903D01*
X178281343Y-79148904D01*
X178281344Y-79148905D01*
X178294265Y-79152367D01*
X178509592Y-79210063D01*
X178686034Y-79225500D01*
X178744999Y-79230659D01*
X178745000Y-79230659D01*
X178745001Y-79230659D01*
X178803966Y-79225500D01*
X178980408Y-79210063D01*
X179208663Y-79148903D01*
X179321297Y-79096380D01*
X179390372Y-79085889D01*
X179454156Y-79114408D01*
X179492396Y-79172885D01*
X179497700Y-79208763D01*
X179497700Y-79704525D01*
X179478694Y-79770497D01*
X179440410Y-79831424D01*
X179386412Y-79985744D01*
X179368109Y-80148196D01*
X179368109Y-80148203D01*
X179386412Y-80310655D01*
X179440410Y-80464974D01*
X179440411Y-80464975D01*
X179527392Y-80603404D01*
X179642996Y-80719008D01*
X179781425Y-80805989D01*
X179935739Y-80859986D01*
X179935742Y-80859986D01*
X179935744Y-80859987D01*
X180098196Y-80878291D01*
X180098200Y-80878291D01*
X180098204Y-80878291D01*
X180260655Y-80859987D01*
X180260656Y-80859986D01*
X180260661Y-80859986D01*
X180414975Y-80805989D01*
X180553404Y-80719008D01*
X180669008Y-80603404D01*
X180755989Y-80464975D01*
X180809986Y-80310661D01*
X180809987Y-80310655D01*
X180828291Y-80148203D01*
X180828291Y-80148196D01*
X180809987Y-79985744D01*
X180809986Y-79985742D01*
X180809986Y-79985739D01*
X180769065Y-79868793D01*
X180755989Y-79831424D01*
X180717706Y-79770497D01*
X180698700Y-79704525D01*
X180698700Y-75548896D01*
X180718385Y-75481857D01*
X180735014Y-75461220D01*
X182054526Y-74141707D01*
X182115847Y-74108224D01*
X182185539Y-74113208D01*
X182241472Y-74155080D01*
X182254587Y-74176985D01*
X182275965Y-74222829D01*
X182275967Y-74222834D01*
X182366262Y-74351787D01*
X182411501Y-74416396D01*
X182411506Y-74416402D01*
X182533430Y-74538326D01*
X182566915Y-74599649D01*
X182561931Y-74669341D01*
X182520059Y-74725274D01*
X182489083Y-74742189D01*
X182357669Y-74791203D01*
X182357664Y-74791206D01*
X182242455Y-74877452D01*
X182242452Y-74877455D01*
X182156206Y-74992664D01*
X182156202Y-74992671D01*
X182105908Y-75127517D01*
X182099501Y-75187116D01*
X182099501Y-75187123D01*
X182099500Y-75187135D01*
X182099500Y-76982870D01*
X182099501Y-76982876D01*
X182105908Y-77042483D01*
X182156202Y-77177328D01*
X182156206Y-77177335D01*
X182242452Y-77292544D01*
X182242455Y-77292547D01*
X182357664Y-77378793D01*
X182357671Y-77378797D01*
X182492517Y-77429091D01*
X182492516Y-77429091D01*
X182499444Y-77429835D01*
X182552127Y-77435500D01*
X184347872Y-77435499D01*
X184407483Y-77429091D01*
X184542331Y-77378796D01*
X184657546Y-77292546D01*
X184743796Y-77177331D01*
X184794091Y-77042483D01*
X184800500Y-76982873D01*
X184800499Y-75187128D01*
X184794091Y-75127517D01*
X184788846Y-75113455D01*
X184743797Y-74992671D01*
X184743793Y-74992664D01*
X184657547Y-74877455D01*
X184657544Y-74877452D01*
X184542335Y-74791206D01*
X184542328Y-74791202D01*
X184410917Y-74742189D01*
X184354983Y-74700318D01*
X184330566Y-74634853D01*
X184345418Y-74566580D01*
X184366563Y-74538332D01*
X184488495Y-74416401D01*
X184624035Y-74222830D01*
X184723903Y-74008663D01*
X184785063Y-73780408D01*
X184805659Y-73545000D01*
X184785063Y-73309592D01*
X184723903Y-73081337D01*
X184624035Y-72867171D01*
X184619936Y-72861316D01*
X184488494Y-72673597D01*
X184479296Y-72664399D01*
X184445811Y-72603076D01*
X184450795Y-72533384D01*
X184479294Y-72489039D01*
X184960206Y-72008128D01*
X184960211Y-72008124D01*
X184970414Y-71997920D01*
X184970416Y-71997920D01*
X185082220Y-71886116D01*
X185142251Y-71782139D01*
X185161277Y-71749185D01*
X185202200Y-71596458D01*
X185202200Y-71438343D01*
X185202200Y-70597759D01*
X185202201Y-70597746D01*
X185202201Y-70429645D01*
X185202201Y-70429643D01*
X185161277Y-70276915D01*
X185125830Y-70215519D01*
X185125830Y-70215518D01*
X185082224Y-70139990D01*
X185082221Y-70139986D01*
X185082220Y-70139984D01*
X184970416Y-70028180D01*
X184970415Y-70028179D01*
X184966085Y-70023849D01*
X184966074Y-70023839D01*
X184471246Y-69529011D01*
X184437761Y-69467688D01*
X184442745Y-69397996D01*
X184471246Y-69353649D01*
X184488495Y-69336401D01*
X184624035Y-69142830D01*
X184723903Y-68928663D01*
X184785063Y-68700408D01*
X184805659Y-68465000D01*
X184785063Y-68229592D01*
X184723903Y-68001337D01*
X184624035Y-67787171D01*
X184591108Y-67740145D01*
X184488494Y-67593597D01*
X184321402Y-67426506D01*
X184321396Y-67426501D01*
X184135842Y-67296575D01*
X184092217Y-67241998D01*
X184085023Y-67172500D01*
X184116546Y-67110145D01*
X184135842Y-67093425D01*
X184158026Y-67077891D01*
X184321401Y-66963495D01*
X184488495Y-66796401D01*
X184624035Y-66602830D01*
X184723903Y-66388663D01*
X184785063Y-66160408D01*
X184805659Y-65925000D01*
X184785063Y-65689592D01*
X184723903Y-65461337D01*
X184624035Y-65247171D01*
X184593751Y-65203920D01*
X184574996Y-65177135D01*
X201224500Y-65177135D01*
X201224500Y-66972870D01*
X201224501Y-66972876D01*
X201230908Y-67032483D01*
X201281202Y-67167328D01*
X201281206Y-67167335D01*
X201367452Y-67282544D01*
X201367455Y-67282547D01*
X201482664Y-67368793D01*
X201482671Y-67368797D01*
X201617517Y-67419091D01*
X201617516Y-67419091D01*
X201624444Y-67419835D01*
X201677127Y-67425500D01*
X203472872Y-67425499D01*
X203532483Y-67419091D01*
X203667331Y-67368796D01*
X203782546Y-67282546D01*
X203868796Y-67167331D01*
X203917810Y-67035916D01*
X203959681Y-66979984D01*
X204025145Y-66955566D01*
X204093418Y-66970417D01*
X204121670Y-66991566D01*
X204243599Y-67113495D01*
X204261622Y-67126115D01*
X204305247Y-67180689D01*
X204314500Y-67227690D01*
X204314500Y-77329046D01*
X204345261Y-77483689D01*
X204345264Y-77483701D01*
X204405606Y-77629381D01*
X204406402Y-77630870D01*
X204414971Y-77650998D01*
X204460518Y-77791177D01*
X204460521Y-77791184D01*
X204555167Y-77955116D01*
X204595300Y-77999688D01*
X204681829Y-78095788D01*
X204834965Y-78207048D01*
X204834970Y-78207051D01*
X205007892Y-78284042D01*
X205007897Y-78284044D01*
X205193054Y-78323400D01*
X205193055Y-78323400D01*
X205382344Y-78323400D01*
X205382346Y-78323400D01*
X205567503Y-78284044D01*
X205740430Y-78207051D01*
X205893571Y-78095788D01*
X206020233Y-77955116D01*
X206114879Y-77791184D01*
X206173374Y-77611156D01*
X206193160Y-77422900D01*
X206173374Y-77234644D01*
X206114879Y-77054616D01*
X206020233Y-76890684D01*
X205947350Y-76809739D01*
X205917120Y-76746747D01*
X205915500Y-76726767D01*
X205915500Y-67227690D01*
X205935185Y-67160651D01*
X205968375Y-67126116D01*
X205986401Y-67113495D01*
X206153495Y-66946401D01*
X206283730Y-66760405D01*
X206338307Y-66716781D01*
X206407805Y-66709587D01*
X206470160Y-66741110D01*
X206486879Y-66760405D01*
X206616890Y-66946078D01*
X206783917Y-67113105D01*
X206977421Y-67248600D01*
X207191507Y-67348429D01*
X207191516Y-67348433D01*
X207405000Y-67405634D01*
X207405000Y-66508012D01*
X207462007Y-66540925D01*
X207589174Y-66575000D01*
X207720826Y-66575000D01*
X207847993Y-66540925D01*
X207905000Y-66508012D01*
X207905000Y-67405633D01*
X208118483Y-67348433D01*
X208118492Y-67348429D01*
X208332578Y-67248600D01*
X208526082Y-67113105D01*
X208693105Y-66946082D01*
X208828600Y-66752578D01*
X208928429Y-66538492D01*
X208928432Y-66538486D01*
X208985636Y-66325000D01*
X208088012Y-66325000D01*
X208120925Y-66267993D01*
X208155000Y-66140826D01*
X208155000Y-66009174D01*
X208120925Y-65882007D01*
X208088012Y-65825000D01*
X208985636Y-65825000D01*
X208985635Y-65824999D01*
X208928432Y-65611513D01*
X208928429Y-65611507D01*
X208828600Y-65397422D01*
X208828599Y-65397420D01*
X208693113Y-65203926D01*
X208693108Y-65203920D01*
X208526082Y-65036894D01*
X208332578Y-64901399D01*
X208118492Y-64801570D01*
X208118486Y-64801567D01*
X207905000Y-64744364D01*
X207905000Y-65641988D01*
X207847993Y-65609075D01*
X207720826Y-65575000D01*
X207589174Y-65575000D01*
X207462007Y-65609075D01*
X207405000Y-65641988D01*
X207405000Y-64744364D01*
X207404999Y-64744364D01*
X207191513Y-64801567D01*
X207191507Y-64801570D01*
X206977422Y-64901399D01*
X206977420Y-64901400D01*
X206783926Y-65036886D01*
X206783920Y-65036891D01*
X206616891Y-65203920D01*
X206616890Y-65203922D01*
X206486880Y-65389595D01*
X206432303Y-65433219D01*
X206362804Y-65440412D01*
X206300450Y-65408890D01*
X206283730Y-65389594D01*
X206153494Y-65203597D01*
X205986402Y-65036506D01*
X205986395Y-65036501D01*
X205792834Y-64900967D01*
X205792830Y-64900965D01*
X205780038Y-64895000D01*
X205578663Y-64801097D01*
X205578659Y-64801096D01*
X205578655Y-64801094D01*
X205350413Y-64739938D01*
X205350403Y-64739936D01*
X205115001Y-64719341D01*
X205114999Y-64719341D01*
X204879596Y-64739936D01*
X204879586Y-64739938D01*
X204651344Y-64801094D01*
X204651337Y-64801096D01*
X204651337Y-64801097D01*
X204637816Y-64807401D01*
X204437171Y-64900964D01*
X204437169Y-64900965D01*
X204243600Y-65036503D01*
X204121673Y-65158430D01*
X204060350Y-65191914D01*
X203990658Y-65186930D01*
X203934725Y-65145058D01*
X203917810Y-65114081D01*
X203868797Y-64982671D01*
X203868793Y-64982664D01*
X203782547Y-64867455D01*
X203782544Y-64867452D01*
X203667335Y-64781206D01*
X203667328Y-64781202D01*
X203532482Y-64730908D01*
X203532483Y-64730908D01*
X203472883Y-64724501D01*
X203472881Y-64724500D01*
X203472873Y-64724500D01*
X203472864Y-64724500D01*
X201677129Y-64724500D01*
X201677123Y-64724501D01*
X201617516Y-64730908D01*
X201482671Y-64781202D01*
X201482664Y-64781206D01*
X201367455Y-64867452D01*
X201367452Y-64867455D01*
X201281206Y-64982664D01*
X201281202Y-64982671D01*
X201230908Y-65117517D01*
X201224501Y-65177116D01*
X201224500Y-65177135D01*
X184574996Y-65177135D01*
X184488494Y-65053597D01*
X184321402Y-64886506D01*
X184321396Y-64886501D01*
X184135842Y-64756575D01*
X184092217Y-64701998D01*
X184085023Y-64632500D01*
X184116546Y-64570145D01*
X184135842Y-64553425D01*
X184207872Y-64502989D01*
X184321401Y-64423495D01*
X184488495Y-64256401D01*
X184624035Y-64062830D01*
X184723903Y-63848663D01*
X184785063Y-63620408D01*
X184805659Y-63385000D01*
X184804955Y-63376959D01*
X184798907Y-63307822D01*
X184785063Y-63149592D01*
X184723903Y-62921337D01*
X184624035Y-62707171D01*
X184615676Y-62695232D01*
X184488494Y-62513597D01*
X184321402Y-62346506D01*
X184321396Y-62346501D01*
X184135842Y-62216575D01*
X184092217Y-62161998D01*
X184085023Y-62092500D01*
X184116546Y-62030145D01*
X184135842Y-62013425D01*
X184276324Y-61915058D01*
X184321401Y-61883495D01*
X184488495Y-61716401D01*
X184624035Y-61522830D01*
X184723903Y-61308663D01*
X184785063Y-61080408D01*
X184805659Y-60845000D01*
X184785063Y-60609592D01*
X184735093Y-60423100D01*
X184723905Y-60381344D01*
X184723904Y-60381343D01*
X184723903Y-60381337D01*
X184624035Y-60167171D01*
X184618462Y-60159211D01*
X184488494Y-59973597D01*
X184364895Y-59849999D01*
X186269357Y-59849999D01*
X186269357Y-59850000D01*
X186289884Y-60071535D01*
X186289885Y-60071537D01*
X186350769Y-60285523D01*
X186350775Y-60285538D01*
X186449938Y-60484683D01*
X186449943Y-60484691D01*
X186584020Y-60662238D01*
X186748437Y-60812123D01*
X186748439Y-60812125D01*
X186937595Y-60929245D01*
X186937596Y-60929245D01*
X186937599Y-60929247D01*
X187145060Y-61009618D01*
X187363757Y-61050500D01*
X187363759Y-61050500D01*
X187586241Y-61050500D01*
X187586243Y-61050500D01*
X187804940Y-61009618D01*
X188012401Y-60929247D01*
X188201562Y-60812124D01*
X188365981Y-60662236D01*
X188500058Y-60484689D01*
X188599229Y-60285528D01*
X188660115Y-60071536D01*
X188680643Y-59850000D01*
X188680643Y-59849999D01*
X197269357Y-59849999D01*
X197269357Y-59850000D01*
X197289884Y-60071535D01*
X197289885Y-60071537D01*
X197350769Y-60285523D01*
X197350775Y-60285538D01*
X197449938Y-60484683D01*
X197449943Y-60484691D01*
X197584020Y-60662238D01*
X197748437Y-60812123D01*
X197748439Y-60812125D01*
X197937595Y-60929245D01*
X197937596Y-60929245D01*
X197937599Y-60929247D01*
X198145060Y-61009618D01*
X198363757Y-61050500D01*
X198363759Y-61050500D01*
X198586241Y-61050500D01*
X198586243Y-61050500D01*
X198804940Y-61009618D01*
X199012401Y-60929247D01*
X199201562Y-60812124D01*
X199365981Y-60662236D01*
X199500058Y-60484689D01*
X199599229Y-60285528D01*
X199660115Y-60071536D01*
X199665974Y-60008306D01*
X206794500Y-60008306D01*
X206794500Y-60241693D01*
X206794501Y-60241709D01*
X206824964Y-60473100D01*
X206885375Y-60698555D01*
X206974690Y-60914181D01*
X206974695Y-60914192D01*
X207091387Y-61116307D01*
X207091398Y-61116323D01*
X207233475Y-61301482D01*
X207233481Y-61301489D01*
X207398510Y-61466518D01*
X207398517Y-61466524D01*
X207420787Y-61483612D01*
X207583685Y-61608608D01*
X207583692Y-61608612D01*
X207785807Y-61725304D01*
X207785812Y-61725306D01*
X207785815Y-61725308D01*
X208001449Y-61814626D01*
X208226896Y-61875035D01*
X208458300Y-61905500D01*
X208458307Y-61905500D01*
X208691693Y-61905500D01*
X208691700Y-61905500D01*
X208923104Y-61875035D01*
X209148551Y-61814626D01*
X209364185Y-61725308D01*
X209566315Y-61608608D01*
X209751484Y-61466523D01*
X209916523Y-61301484D01*
X210058608Y-61116315D01*
X210175308Y-60914185D01*
X210264626Y-60698551D01*
X210325035Y-60473104D01*
X210355500Y-60241700D01*
X210355500Y-60008300D01*
X210325035Y-59776896D01*
X210264626Y-59551449D01*
X210175308Y-59335815D01*
X210175306Y-59335812D01*
X210175304Y-59335807D01*
X210058612Y-59133692D01*
X210058608Y-59133685D01*
X209916523Y-58948516D01*
X209916518Y-58948510D01*
X209751489Y-58783481D01*
X209751482Y-58783475D01*
X209566323Y-58641398D01*
X209566321Y-58641396D01*
X209566315Y-58641392D01*
X209566310Y-58641389D01*
X209566307Y-58641387D01*
X209364192Y-58524695D01*
X209364181Y-58524690D01*
X209148555Y-58435375D01*
X208923100Y-58374964D01*
X208691709Y-58344501D01*
X208691706Y-58344500D01*
X208691700Y-58344500D01*
X208458300Y-58344500D01*
X208458294Y-58344500D01*
X208458290Y-58344501D01*
X208226899Y-58374964D01*
X208001444Y-58435375D01*
X207785818Y-58524690D01*
X207785807Y-58524695D01*
X207583692Y-58641387D01*
X207583676Y-58641398D01*
X207398517Y-58783475D01*
X207398510Y-58783481D01*
X207233481Y-58948510D01*
X207233475Y-58948517D01*
X207091398Y-59133676D01*
X207091387Y-59133692D01*
X206974695Y-59335807D01*
X206974690Y-59335818D01*
X206885375Y-59551444D01*
X206824964Y-59776899D01*
X206794501Y-60008290D01*
X206794500Y-60008306D01*
X199665974Y-60008306D01*
X199680643Y-59850000D01*
X199660115Y-59628464D01*
X199599229Y-59414472D01*
X199599224Y-59414461D01*
X199500061Y-59215316D01*
X199500056Y-59215308D01*
X199365979Y-59037761D01*
X199201562Y-58887876D01*
X199201560Y-58887874D01*
X199012404Y-58770754D01*
X199012398Y-58770752D01*
X198804940Y-58690382D01*
X198586243Y-58649500D01*
X198363757Y-58649500D01*
X198145060Y-58690382D01*
X198033819Y-58733477D01*
X197937601Y-58770752D01*
X197937595Y-58770754D01*
X197748439Y-58887874D01*
X197748437Y-58887876D01*
X197584020Y-59037761D01*
X197449943Y-59215308D01*
X197449938Y-59215316D01*
X197350775Y-59414461D01*
X197350769Y-59414476D01*
X197289885Y-59628462D01*
X197289884Y-59628464D01*
X197269357Y-59849999D01*
X188680643Y-59849999D01*
X188660115Y-59628464D01*
X188599229Y-59414472D01*
X188599224Y-59414461D01*
X188500061Y-59215316D01*
X188500056Y-59215308D01*
X188365979Y-59037761D01*
X188201562Y-58887876D01*
X188201560Y-58887874D01*
X188012404Y-58770754D01*
X188012398Y-58770752D01*
X187804940Y-58690382D01*
X187586243Y-58649500D01*
X187363757Y-58649500D01*
X187145060Y-58690382D01*
X187033819Y-58733477D01*
X186937601Y-58770752D01*
X186937595Y-58770754D01*
X186748439Y-58887874D01*
X186748437Y-58887876D01*
X186584020Y-59037761D01*
X186449943Y-59215308D01*
X186449938Y-59215316D01*
X186350775Y-59414461D01*
X186350769Y-59414476D01*
X186289885Y-59628462D01*
X186289884Y-59628464D01*
X186269357Y-59849999D01*
X184364895Y-59849999D01*
X184321402Y-59806506D01*
X184321401Y-59806505D01*
X184135405Y-59676269D01*
X184091781Y-59621692D01*
X184084588Y-59552193D01*
X184116110Y-59489839D01*
X184135405Y-59473119D01*
X184321082Y-59343105D01*
X184488105Y-59176082D01*
X184623600Y-58982578D01*
X184723429Y-58768492D01*
X184723432Y-58768486D01*
X184780636Y-58555000D01*
X183883012Y-58555000D01*
X183915925Y-58497993D01*
X183950000Y-58370826D01*
X183950000Y-58239174D01*
X183915925Y-58112007D01*
X183883012Y-58055000D01*
X184780636Y-58055000D01*
X184780635Y-58054999D01*
X184723432Y-57841513D01*
X184723429Y-57841507D01*
X184623600Y-57627422D01*
X184623599Y-57627420D01*
X184488113Y-57433926D01*
X184488108Y-57433920D01*
X184321082Y-57266894D01*
X184127578Y-57131399D01*
X183913492Y-57031570D01*
X183913486Y-57031567D01*
X183700000Y-56974364D01*
X183700000Y-57871988D01*
X183642993Y-57839075D01*
X183515826Y-57805000D01*
X183384174Y-57805000D01*
X183257007Y-57839075D01*
X183200000Y-57871988D01*
X183200000Y-56974364D01*
X183199999Y-56974364D01*
X182986513Y-57031567D01*
X182986507Y-57031570D01*
X182772422Y-57131399D01*
X182772420Y-57131400D01*
X182578926Y-57266886D01*
X182578920Y-57266891D01*
X182411891Y-57433920D01*
X182411886Y-57433926D01*
X182276400Y-57627420D01*
X182276399Y-57627422D01*
X182176570Y-57841507D01*
X182176567Y-57841513D01*
X182119364Y-58054999D01*
X182119364Y-58055000D01*
X183016988Y-58055000D01*
X182984075Y-58112007D01*
X182950000Y-58239174D01*
X182950000Y-58370826D01*
X182984075Y-58497993D01*
X183016988Y-58555000D01*
X182119364Y-58555000D01*
X182176567Y-58768486D01*
X182176570Y-58768492D01*
X182276399Y-58982578D01*
X182411894Y-59176082D01*
X182578917Y-59343105D01*
X182764595Y-59473119D01*
X182808219Y-59527696D01*
X182815412Y-59597195D01*
X182783890Y-59659549D01*
X182764595Y-59676269D01*
X182578597Y-59806505D01*
X182472921Y-59912182D01*
X182411598Y-59945666D01*
X182341906Y-59940682D01*
X182297559Y-59912181D01*
X181918992Y-59533613D01*
X181918988Y-59533610D01*
X181787885Y-59446009D01*
X181787872Y-59446002D01*
X181642201Y-59385664D01*
X181642189Y-59385661D01*
X181487545Y-59354900D01*
X181487542Y-59354900D01*
X174511543Y-59354900D01*
X174353858Y-59354900D01*
X174353853Y-59354900D01*
X174199210Y-59385660D01*
X174199202Y-59385662D01*
X174053524Y-59446004D01*
X174053514Y-59446009D01*
X173922411Y-59533610D01*
X173922407Y-59533613D01*
X172541841Y-60914181D01*
X172083911Y-61372111D01*
X172039504Y-61416518D01*
X171972409Y-61483612D01*
X171884809Y-61614714D01*
X171884802Y-61614727D01*
X171824464Y-61760398D01*
X171824461Y-61760410D01*
X171793700Y-61915053D01*
X171793700Y-67251160D01*
X171774015Y-67318199D01*
X171757381Y-67338841D01*
X163574581Y-75521641D01*
X163513258Y-75555126D01*
X163443566Y-75550142D01*
X163387633Y-75508270D01*
X163363216Y-75442806D01*
X163362900Y-75433960D01*
X163362900Y-66911660D01*
X168111892Y-66911660D01*
X168111892Y-66911661D01*
X168125692Y-66920333D01*
X168125691Y-66920333D01*
X168295861Y-66979878D01*
X168474997Y-67000062D01*
X168475003Y-67000062D01*
X168654138Y-66979878D01*
X168654141Y-66979877D01*
X168824305Y-66920334D01*
X168824306Y-66920334D01*
X168838106Y-66911661D01*
X168838106Y-66911660D01*
X169511892Y-66911660D01*
X169511892Y-66911661D01*
X169525692Y-66920333D01*
X169525691Y-66920333D01*
X169695861Y-66979878D01*
X169874997Y-67000062D01*
X169875003Y-67000062D01*
X170054138Y-66979878D01*
X170054141Y-66979877D01*
X170224305Y-66920334D01*
X170224306Y-66920334D01*
X170238106Y-66911661D01*
X170238106Y-66911660D01*
X169875001Y-66548553D01*
X169875000Y-66548553D01*
X169511892Y-66911660D01*
X168838106Y-66911660D01*
X168475001Y-66548553D01*
X168475000Y-66548553D01*
X168111892Y-66911660D01*
X163362900Y-66911660D01*
X163362900Y-66211660D01*
X167411892Y-66211660D01*
X167411892Y-66211661D01*
X167425692Y-66220333D01*
X167425691Y-66220333D01*
X167595862Y-66279878D01*
X167596644Y-66280057D01*
X167597097Y-66280310D01*
X167602431Y-66282177D01*
X167602104Y-66283111D01*
X167657623Y-66314166D01*
X167686952Y-66367874D01*
X167687822Y-66367570D01*
X167689670Y-66372852D01*
X167689940Y-66373346D01*
X167690121Y-66374142D01*
X167749663Y-66544300D01*
X167749663Y-66544301D01*
X167758338Y-66558107D01*
X168121446Y-66195000D01*
X168101555Y-66175109D01*
X168375000Y-66175109D01*
X168375000Y-66214891D01*
X168390224Y-66251645D01*
X168418355Y-66279776D01*
X168455109Y-66295000D01*
X168494891Y-66295000D01*
X168531645Y-66279776D01*
X168559776Y-66251645D01*
X168575000Y-66214891D01*
X168575000Y-66195000D01*
X168828553Y-66195000D01*
X169175000Y-66541446D01*
X169175001Y-66541446D01*
X169508946Y-66207501D01*
X169508946Y-66207499D01*
X169476556Y-66175109D01*
X169775000Y-66175109D01*
X169775000Y-66214891D01*
X169790224Y-66251645D01*
X169818355Y-66279776D01*
X169855109Y-66295000D01*
X169894891Y-66295000D01*
X169931645Y-66279776D01*
X169959776Y-66251645D01*
X169975000Y-66214891D01*
X169975000Y-66194999D01*
X170228553Y-66194999D01*
X170228553Y-66195000D01*
X170591660Y-66558106D01*
X170591661Y-66558106D01*
X170600334Y-66544306D01*
X170600334Y-66544305D01*
X170659876Y-66374144D01*
X170660056Y-66373358D01*
X170660311Y-66372901D01*
X170662177Y-66367570D01*
X170663110Y-66367896D01*
X170694164Y-66312379D01*
X170747875Y-66283049D01*
X170747570Y-66282177D01*
X170752870Y-66280322D01*
X170753358Y-66280056D01*
X170754144Y-66279876D01*
X170924305Y-66220334D01*
X170924306Y-66220334D01*
X170938106Y-66211661D01*
X170938106Y-66211660D01*
X170575000Y-65848553D01*
X170509240Y-65914314D01*
X170509239Y-65914314D01*
X170228553Y-66194999D01*
X169975000Y-66194999D01*
X169975000Y-66175109D01*
X169959776Y-66138355D01*
X169931645Y-66110224D01*
X169894891Y-66095000D01*
X169855109Y-66095000D01*
X169818355Y-66110224D01*
X169790224Y-66138355D01*
X169775000Y-66175109D01*
X169476556Y-66175109D01*
X169162501Y-65861053D01*
X169162500Y-65861053D01*
X168828553Y-66195000D01*
X168575000Y-66195000D01*
X168575000Y-66175109D01*
X168559776Y-66138355D01*
X168531645Y-66110224D01*
X168494891Y-66095000D01*
X168455109Y-66095000D01*
X168418355Y-66110224D01*
X168390224Y-66138355D01*
X168375000Y-66175109D01*
X168101555Y-66175109D01*
X167774999Y-65848553D01*
X167774998Y-65848553D01*
X167411892Y-66211660D01*
X163362900Y-66211660D01*
X163362900Y-65494997D01*
X166969938Y-65494997D01*
X166969938Y-65495002D01*
X166990121Y-65674138D01*
X167049665Y-65844304D01*
X167058338Y-65858107D01*
X167421446Y-65495000D01*
X167421446Y-65494999D01*
X167401556Y-65475109D01*
X167675000Y-65475109D01*
X167675000Y-65514891D01*
X167690224Y-65551645D01*
X167718355Y-65579776D01*
X167755109Y-65595000D01*
X167794891Y-65595000D01*
X167831645Y-65579776D01*
X167859776Y-65551645D01*
X167875000Y-65514891D01*
X167875000Y-65495000D01*
X168128553Y-65495000D01*
X168179012Y-65545458D01*
X168462500Y-65828946D01*
X168796446Y-65495000D01*
X168796446Y-65494999D01*
X168776556Y-65475109D01*
X169050000Y-65475109D01*
X169050000Y-65514891D01*
X169065224Y-65551645D01*
X169093355Y-65579776D01*
X169130109Y-65595000D01*
X169169891Y-65595000D01*
X169206645Y-65579776D01*
X169234776Y-65551645D01*
X169250000Y-65514891D01*
X169250000Y-65494999D01*
X169528553Y-65494999D01*
X169528553Y-65495000D01*
X169874998Y-65841446D01*
X169874999Y-65841446D01*
X170170988Y-65545458D01*
X170221446Y-65495000D01*
X170201555Y-65475109D01*
X170475000Y-65475109D01*
X170475000Y-65514891D01*
X170490224Y-65551645D01*
X170518355Y-65579776D01*
X170555109Y-65595000D01*
X170594891Y-65595000D01*
X170631645Y-65579776D01*
X170659776Y-65551645D01*
X170675000Y-65514891D01*
X170675000Y-65495000D01*
X170928553Y-65495000D01*
X171291660Y-65858106D01*
X171291661Y-65858106D01*
X171300334Y-65844306D01*
X171300334Y-65844305D01*
X171359877Y-65674141D01*
X171359878Y-65674138D01*
X171380062Y-65495002D01*
X171380062Y-65494997D01*
X171359878Y-65315861D01*
X171300333Y-65145692D01*
X171291661Y-65131892D01*
X171291660Y-65131892D01*
X170928553Y-65495000D01*
X170675000Y-65495000D01*
X170675000Y-65475109D01*
X170659776Y-65438355D01*
X170631645Y-65410224D01*
X170594891Y-65395000D01*
X170555109Y-65395000D01*
X170518355Y-65410224D01*
X170490224Y-65438355D01*
X170475000Y-65475109D01*
X170201555Y-65475109D01*
X169874999Y-65148553D01*
X169874998Y-65148553D01*
X169528553Y-65494999D01*
X169250000Y-65494999D01*
X169250000Y-65475109D01*
X169234776Y-65438355D01*
X169206645Y-65410224D01*
X169169891Y-65395000D01*
X169130109Y-65395000D01*
X169093355Y-65410224D01*
X169065224Y-65438355D01*
X169050000Y-65475109D01*
X168776556Y-65475109D01*
X168462500Y-65161053D01*
X168434519Y-65189035D01*
X168434517Y-65189036D01*
X168128553Y-65495000D01*
X167875000Y-65495000D01*
X167875000Y-65475109D01*
X167859776Y-65438355D01*
X167831645Y-65410224D01*
X167794891Y-65395000D01*
X167755109Y-65395000D01*
X167718355Y-65410224D01*
X167690224Y-65438355D01*
X167675000Y-65475109D01*
X167401556Y-65475109D01*
X167058338Y-65131891D01*
X167058337Y-65131891D01*
X167049667Y-65145691D01*
X167049662Y-65145701D01*
X166990122Y-65315858D01*
X166990121Y-65315861D01*
X166969938Y-65494997D01*
X163362900Y-65494997D01*
X163362900Y-64794999D01*
X167428553Y-64794999D01*
X167428553Y-64795001D01*
X167774998Y-65141446D01*
X167774999Y-65141446D01*
X168050869Y-64865577D01*
X168121446Y-64795000D01*
X168101555Y-64775109D01*
X168375000Y-64775109D01*
X168375000Y-64814891D01*
X168390224Y-64851645D01*
X168418355Y-64879776D01*
X168455109Y-64895000D01*
X168494891Y-64895000D01*
X168531645Y-64879776D01*
X168559776Y-64851645D01*
X168575000Y-64814891D01*
X168575000Y-64795000D01*
X168828553Y-64795000D01*
X169162500Y-65128946D01*
X169162501Y-65128946D01*
X169496446Y-64795001D01*
X169496446Y-64794999D01*
X169476556Y-64775109D01*
X169775000Y-64775109D01*
X169775000Y-64814891D01*
X169790224Y-64851645D01*
X169818355Y-64879776D01*
X169855109Y-64895000D01*
X169894891Y-64895000D01*
X169931645Y-64879776D01*
X169959776Y-64851645D01*
X169975000Y-64814891D01*
X169975000Y-64794999D01*
X170228553Y-64794999D01*
X170575000Y-65141446D01*
X170921446Y-64795000D01*
X170921446Y-64794999D01*
X170575000Y-64448553D01*
X170509240Y-64514314D01*
X170509239Y-64514314D01*
X170228553Y-64794999D01*
X169975000Y-64794999D01*
X169975000Y-64775109D01*
X169959776Y-64738355D01*
X169931645Y-64710224D01*
X169894891Y-64695000D01*
X169855109Y-64695000D01*
X169818355Y-64710224D01*
X169790224Y-64738355D01*
X169775000Y-64775109D01*
X169476556Y-64775109D01*
X169162501Y-64461053D01*
X169162500Y-64461053D01*
X168828553Y-64795000D01*
X168575000Y-64795000D01*
X168575000Y-64775109D01*
X168559776Y-64738355D01*
X168531645Y-64710224D01*
X168494891Y-64695000D01*
X168455109Y-64695000D01*
X168418355Y-64710224D01*
X168390224Y-64738355D01*
X168375000Y-64775109D01*
X168101555Y-64775109D01*
X167774999Y-64448553D01*
X167774998Y-64448553D01*
X167428553Y-64794999D01*
X163362900Y-64794999D01*
X163362900Y-64094997D01*
X166969938Y-64094997D01*
X166969938Y-64095002D01*
X166990121Y-64274138D01*
X167049665Y-64444304D01*
X167058338Y-64458107D01*
X167421446Y-64095000D01*
X167421446Y-64094999D01*
X167401556Y-64075109D01*
X167675000Y-64075109D01*
X167675000Y-64114891D01*
X167690224Y-64151645D01*
X167718355Y-64179776D01*
X167755109Y-64195000D01*
X167794891Y-64195000D01*
X167831645Y-64179776D01*
X167859776Y-64151645D01*
X167875000Y-64114891D01*
X167875000Y-64094999D01*
X168128553Y-64094999D01*
X168171618Y-64138063D01*
X168171619Y-64138065D01*
X168462500Y-64428946D01*
X168796446Y-64095000D01*
X168796446Y-64094999D01*
X168776556Y-64075109D01*
X169050000Y-64075109D01*
X169050000Y-64114891D01*
X169065224Y-64151645D01*
X169093355Y-64179776D01*
X169130109Y-64195000D01*
X169169891Y-64195000D01*
X169206645Y-64179776D01*
X169234776Y-64151645D01*
X169250000Y-64114891D01*
X169250000Y-64094999D01*
X169528553Y-64094999D01*
X169528553Y-64095000D01*
X169874998Y-64441446D01*
X169874999Y-64441446D01*
X170178382Y-64138064D01*
X170221446Y-64095000D01*
X170201555Y-64075109D01*
X170475000Y-64075109D01*
X170475000Y-64114891D01*
X170490224Y-64151645D01*
X170518355Y-64179776D01*
X170555109Y-64195000D01*
X170594891Y-64195000D01*
X170631645Y-64179776D01*
X170659776Y-64151645D01*
X170675000Y-64114891D01*
X170675000Y-64095000D01*
X170928553Y-64095000D01*
X171291660Y-64458106D01*
X171291661Y-64458106D01*
X171300334Y-64444306D01*
X171300334Y-64444305D01*
X171359877Y-64274141D01*
X171359878Y-64274138D01*
X171380062Y-64095002D01*
X171380062Y-64094997D01*
X171359878Y-63915861D01*
X171300333Y-63745692D01*
X171291661Y-63731892D01*
X171291660Y-63731892D01*
X170928553Y-64095000D01*
X170675000Y-64095000D01*
X170675000Y-64075109D01*
X170659776Y-64038355D01*
X170631645Y-64010224D01*
X170594891Y-63995000D01*
X170555109Y-63995000D01*
X170518355Y-64010224D01*
X170490224Y-64038355D01*
X170475000Y-64075109D01*
X170201555Y-64075109D01*
X169874999Y-63748553D01*
X169874998Y-63748553D01*
X169528553Y-64094999D01*
X169250000Y-64094999D01*
X169250000Y-64075109D01*
X169234776Y-64038355D01*
X169206645Y-64010224D01*
X169169891Y-63995000D01*
X169130109Y-63995000D01*
X169093355Y-64010224D01*
X169065224Y-64038355D01*
X169050000Y-64075109D01*
X168776556Y-64075109D01*
X168462500Y-63761053D01*
X168409241Y-63814313D01*
X168409240Y-63814314D01*
X168128553Y-64094999D01*
X167875000Y-64094999D01*
X167875000Y-64075109D01*
X167859776Y-64038355D01*
X167831645Y-64010224D01*
X167794891Y-63995000D01*
X167755109Y-63995000D01*
X167718355Y-64010224D01*
X167690224Y-64038355D01*
X167675000Y-64075109D01*
X167401556Y-64075109D01*
X167058338Y-63731891D01*
X167058337Y-63731891D01*
X167049667Y-63745691D01*
X167049662Y-63745701D01*
X166990122Y-63915858D01*
X166990121Y-63915861D01*
X166969938Y-64094997D01*
X163362900Y-64094997D01*
X163362900Y-63378337D01*
X167411891Y-63378337D01*
X167411891Y-63378338D01*
X167774998Y-63741446D01*
X167774999Y-63741446D01*
X168050868Y-63465577D01*
X168121446Y-63394998D01*
X168101557Y-63375109D01*
X168375000Y-63375109D01*
X168375000Y-63414891D01*
X168390224Y-63451645D01*
X168418355Y-63479776D01*
X168455109Y-63495000D01*
X168494891Y-63495000D01*
X168531645Y-63479776D01*
X168559776Y-63451645D01*
X168575000Y-63414891D01*
X168575000Y-63395000D01*
X168828553Y-63395000D01*
X169162500Y-63728946D01*
X169162501Y-63728946D01*
X169508946Y-63382499D01*
X169508946Y-63382498D01*
X169501557Y-63375109D01*
X169775000Y-63375109D01*
X169775000Y-63414891D01*
X169790224Y-63451645D01*
X169818355Y-63479776D01*
X169855109Y-63495000D01*
X169894891Y-63495000D01*
X169931645Y-63479776D01*
X169959776Y-63451645D01*
X169975000Y-63414891D01*
X169975000Y-63394998D01*
X170228553Y-63394998D01*
X170228553Y-63394999D01*
X170575000Y-63741446D01*
X170575001Y-63741446D01*
X170938107Y-63378338D01*
X170924301Y-63369663D01*
X170754142Y-63310121D01*
X170753346Y-63309940D01*
X170752883Y-63309681D01*
X170747570Y-63307822D01*
X170747895Y-63306890D01*
X170692370Y-63275827D01*
X170663049Y-63222125D01*
X170662177Y-63222431D01*
X170660321Y-63217128D01*
X170660057Y-63216644D01*
X170659878Y-63215862D01*
X170600333Y-63045692D01*
X170591661Y-63031892D01*
X170591660Y-63031892D01*
X170228553Y-63394998D01*
X169975000Y-63394998D01*
X169975000Y-63375109D01*
X169959776Y-63338355D01*
X169931645Y-63310224D01*
X169894891Y-63295000D01*
X169855109Y-63295000D01*
X169818355Y-63310224D01*
X169790224Y-63338355D01*
X169775000Y-63375109D01*
X169501557Y-63375109D01*
X169175000Y-63048553D01*
X168828553Y-63395000D01*
X168575000Y-63395000D01*
X168575000Y-63375109D01*
X168559776Y-63338355D01*
X168531645Y-63310224D01*
X168494891Y-63295000D01*
X168455109Y-63295000D01*
X168418355Y-63310224D01*
X168390224Y-63338355D01*
X168375000Y-63375109D01*
X168101557Y-63375109D01*
X167758338Y-63031891D01*
X167758337Y-63031891D01*
X167749667Y-63045691D01*
X167749662Y-63045701D01*
X167690119Y-63215866D01*
X167689939Y-63216656D01*
X167689682Y-63217113D01*
X167687823Y-63222429D01*
X167686891Y-63222103D01*
X167655824Y-63277631D01*
X167602124Y-63306952D01*
X167602429Y-63307823D01*
X167597145Y-63309671D01*
X167596656Y-63309939D01*
X167595866Y-63310119D01*
X167425701Y-63369662D01*
X167425691Y-63369667D01*
X167411891Y-63378337D01*
X163362900Y-63378337D01*
X163362900Y-62678337D01*
X168111891Y-62678337D01*
X168111891Y-62678338D01*
X168475000Y-63041446D01*
X168475001Y-63041446D01*
X168838107Y-62678338D01*
X168838105Y-62678337D01*
X169511891Y-62678337D01*
X169511891Y-62678338D01*
X169875000Y-63041446D01*
X169875001Y-63041446D01*
X170238107Y-62678338D01*
X170224304Y-62669665D01*
X170054138Y-62610121D01*
X169875003Y-62589938D01*
X169874997Y-62589938D01*
X169695861Y-62610121D01*
X169695858Y-62610122D01*
X169525701Y-62669662D01*
X169525691Y-62669667D01*
X169511891Y-62678337D01*
X168838105Y-62678337D01*
X168824304Y-62669665D01*
X168654138Y-62610121D01*
X168475003Y-62589938D01*
X168474997Y-62589938D01*
X168295861Y-62610121D01*
X168295858Y-62610122D01*
X168125701Y-62669662D01*
X168125691Y-62669667D01*
X168111891Y-62678337D01*
X163362900Y-62678337D01*
X163362900Y-61759174D01*
X163382585Y-61692135D01*
X163435389Y-61646380D01*
X163445934Y-61642136D01*
X163507987Y-61620424D01*
X163535520Y-61610790D01*
X163535522Y-61610789D01*
X163688262Y-61514816D01*
X163815816Y-61387262D01*
X163911789Y-61234522D01*
X163971368Y-61064255D01*
X163972918Y-61050500D01*
X163991565Y-60885003D01*
X163991565Y-60884996D01*
X163971369Y-60705750D01*
X163971368Y-60705745D01*
X163956144Y-60662238D01*
X163911789Y-60535478D01*
X163900503Y-60517517D01*
X163872582Y-60473080D01*
X163815816Y-60382738D01*
X163688262Y-60255184D01*
X163666791Y-60241693D01*
X163535523Y-60159211D01*
X163365254Y-60099631D01*
X163365249Y-60099630D01*
X163186004Y-60079435D01*
X163185996Y-60079435D01*
X163006750Y-60099630D01*
X163006745Y-60099631D01*
X162836476Y-60159211D01*
X162683737Y-60255184D01*
X162556184Y-60382737D01*
X162460210Y-60535478D01*
X162400630Y-60705750D01*
X162390837Y-60792666D01*
X162363770Y-60857080D01*
X162355299Y-60866462D01*
X162281881Y-60939881D01*
X162272633Y-60955900D01*
X162241620Y-61009618D01*
X162231761Y-61026694D01*
X162231759Y-61026696D01*
X162202825Y-61076809D01*
X162202824Y-61076810D01*
X162201860Y-61080408D01*
X162161899Y-61229543D01*
X162161899Y-61229545D01*
X162161899Y-61397646D01*
X162161900Y-61397659D01*
X162161900Y-85441403D01*
X162142215Y-85508442D01*
X162089411Y-85554197D01*
X162020253Y-85564141D01*
X161956697Y-85535116D01*
X161950219Y-85529084D01*
X161299819Y-84878684D01*
X161266334Y-84817361D01*
X161263500Y-84791003D01*
X161263500Y-64063012D01*
X161283185Y-63995973D01*
X161290555Y-63985697D01*
X161292810Y-63982867D01*
X161292816Y-63982862D01*
X161388789Y-63830122D01*
X161448368Y-63659855D01*
X161468565Y-63480600D01*
X161468472Y-63479776D01*
X161448369Y-63301350D01*
X161448368Y-63301345D01*
X161418730Y-63216644D01*
X161388789Y-63131078D01*
X161292816Y-62978338D01*
X161165262Y-62850784D01*
X161114823Y-62819091D01*
X161012523Y-62754811D01*
X160842254Y-62695231D01*
X160842249Y-62695230D01*
X160663004Y-62675035D01*
X160662996Y-62675035D01*
X160483750Y-62695230D01*
X160483745Y-62695231D01*
X160313476Y-62754811D01*
X160160737Y-62850784D01*
X160033184Y-62978337D01*
X159937211Y-63131076D01*
X159877631Y-63301345D01*
X159877630Y-63301350D01*
X159857435Y-63480596D01*
X159857435Y-63480603D01*
X159877630Y-63659849D01*
X159877631Y-63659854D01*
X159937211Y-63830123D01*
X159991084Y-63915861D01*
X160025002Y-63969841D01*
X160033185Y-63982863D01*
X160035445Y-63985697D01*
X160036334Y-63987875D01*
X160036889Y-63988758D01*
X160036734Y-63988855D01*
X160061855Y-64050383D01*
X160062500Y-64063012D01*
X160062500Y-85004430D01*
X160062499Y-85004448D01*
X160062499Y-85170154D01*
X160062498Y-85170154D01*
X160103423Y-85322887D01*
X160111828Y-85337443D01*
X160111827Y-85337443D01*
X160111829Y-85337445D01*
X160182475Y-85459809D01*
X160182481Y-85459817D01*
X160301349Y-85578685D01*
X160301355Y-85578690D01*
X161891757Y-87169092D01*
X161925242Y-87230415D01*
X161920258Y-87300107D01*
X161878386Y-87356040D01*
X161870048Y-87361767D01*
X161728537Y-87450684D01*
X161600984Y-87578237D01*
X161505011Y-87730976D01*
X161445431Y-87901245D01*
X161445430Y-87901250D01*
X161425235Y-88080496D01*
X161425235Y-88080503D01*
X161445430Y-88259749D01*
X161445431Y-88259754D01*
X161505011Y-88430023D01*
X161552773Y-88506035D01*
X161574240Y-88540200D01*
X161600985Y-88582763D01*
X161603245Y-88585597D01*
X161604134Y-88587775D01*
X161604689Y-88588658D01*
X161604534Y-88588755D01*
X161629655Y-88650283D01*
X161630300Y-88662912D01*
X161630300Y-90198430D01*
X161630299Y-90198448D01*
X161630299Y-90364154D01*
X161630298Y-90364154D01*
X161671223Y-90516885D01*
X161693228Y-90554999D01*
X161693230Y-90555001D01*
X161750279Y-90653814D01*
X161750281Y-90653817D01*
X161869149Y-90772685D01*
X161869155Y-90772690D01*
X162188762Y-91092297D01*
X162222247Y-91153620D01*
X162217263Y-91223312D01*
X162175391Y-91279245D01*
X162142046Y-91297016D01*
X162135781Y-91299208D01*
X161983037Y-91395184D01*
X161855484Y-91522737D01*
X161759510Y-91675478D01*
X161699930Y-91845750D01*
X161690137Y-91932668D01*
X161663070Y-91997082D01*
X161654598Y-92006465D01*
X158861535Y-94799528D01*
X158800212Y-94833013D01*
X158732900Y-94828889D01*
X158692152Y-94814631D01*
X158512904Y-94794435D01*
X158512896Y-94794435D01*
X158333650Y-94814630D01*
X158333645Y-94814631D01*
X158163376Y-94874211D01*
X158010637Y-94970184D01*
X157883084Y-95097737D01*
X157787111Y-95250476D01*
X157727531Y-95420745D01*
X157727530Y-95420750D01*
X157707335Y-95599996D01*
X144100500Y-95599996D01*
X144100500Y-91780000D01*
X153465138Y-91780000D01*
X154268012Y-91780000D01*
X154250795Y-91789940D01*
X154194940Y-91845795D01*
X154155444Y-91914204D01*
X154135000Y-91990504D01*
X154135000Y-92069496D01*
X154155444Y-92145796D01*
X154194940Y-92214205D01*
X154250795Y-92270060D01*
X154268012Y-92280000D01*
X153465138Y-92280000D01*
X153473430Y-92321690D01*
X153473430Y-92321692D01*
X153548807Y-92503671D01*
X153548814Y-92503684D01*
X153658248Y-92667462D01*
X153658251Y-92667466D01*
X153797533Y-92806748D01*
X153797537Y-92806751D01*
X153961315Y-92916185D01*
X153961328Y-92916192D01*
X154143306Y-92991569D01*
X154143318Y-92991572D01*
X154336504Y-93029999D01*
X154336508Y-93030000D01*
X154585000Y-93030000D01*
X154585000Y-92330000D01*
X155085000Y-92330000D01*
X155085000Y-93030000D01*
X155333492Y-93030000D01*
X155333495Y-93029999D01*
X155526681Y-92991572D01*
X155526693Y-92991569D01*
X155708671Y-92916192D01*
X155708684Y-92916185D01*
X155872462Y-92806751D01*
X155872466Y-92806748D01*
X156011748Y-92667466D01*
X156011751Y-92667462D01*
X156121185Y-92503684D01*
X156121192Y-92503671D01*
X156196569Y-92321692D01*
X156196569Y-92321690D01*
X156204862Y-92280000D01*
X155401988Y-92280000D01*
X155419205Y-92270060D01*
X155475060Y-92214205D01*
X155514556Y-92145796D01*
X155535000Y-92069496D01*
X155535000Y-91990504D01*
X155514556Y-91914204D01*
X155475060Y-91845795D01*
X155419205Y-91789940D01*
X155401988Y-91780000D01*
X156204862Y-91780000D01*
X157495138Y-91780000D01*
X158298012Y-91780000D01*
X158280795Y-91789940D01*
X158224940Y-91845795D01*
X158185444Y-91914204D01*
X158165000Y-91990504D01*
X158165000Y-92069496D01*
X158185444Y-92145796D01*
X158224940Y-92214205D01*
X158280795Y-92270060D01*
X158298012Y-92280000D01*
X157495138Y-92280000D01*
X157503430Y-92321690D01*
X157503430Y-92321692D01*
X157578807Y-92503671D01*
X157578814Y-92503684D01*
X157688248Y-92667462D01*
X157688251Y-92667466D01*
X157827533Y-92806748D01*
X157827537Y-92806751D01*
X157991315Y-92916185D01*
X157991328Y-92916192D01*
X158069197Y-92948446D01*
X158123601Y-92992286D01*
X158145666Y-93058581D01*
X158128387Y-93126280D01*
X158115334Y-93143084D01*
X158115446Y-93143170D01*
X158110502Y-93149613D01*
X158110499Y-93149616D01*
X158110498Y-93149617D01*
X158110497Y-93149619D01*
X158043950Y-93264881D01*
X158043949Y-93264884D01*
X158009500Y-93393450D01*
X158009500Y-93526550D01*
X158043949Y-93655116D01*
X158110499Y-93770384D01*
X158204616Y-93864501D01*
X158319884Y-93931051D01*
X158448450Y-93965500D01*
X158448452Y-93965500D01*
X158581548Y-93965500D01*
X158581550Y-93965500D01*
X158710116Y-93931051D01*
X158825384Y-93864501D01*
X158919501Y-93770384D01*
X158986051Y-93655116D01*
X159020500Y-93526550D01*
X159020500Y-93393450D01*
X158986051Y-93264884D01*
X158919501Y-93149616D01*
X158825384Y-93055499D01*
X158825381Y-93055497D01*
X158818935Y-93050551D01*
X158820030Y-93049122D01*
X158778784Y-93005865D01*
X158765000Y-92949045D01*
X158765000Y-92330000D01*
X159265000Y-92330000D01*
X159265000Y-93030000D01*
X159663492Y-93030000D01*
X159663495Y-93029999D01*
X159856681Y-92991572D01*
X159856693Y-92991569D01*
X160038671Y-92916192D01*
X160038684Y-92916185D01*
X160202462Y-92806751D01*
X160202466Y-92806748D01*
X160341748Y-92667466D01*
X160341751Y-92667462D01*
X160451185Y-92503684D01*
X160451192Y-92503671D01*
X160526569Y-92321692D01*
X160526569Y-92321690D01*
X160534862Y-92280000D01*
X159731988Y-92280000D01*
X159749205Y-92270060D01*
X159805060Y-92214205D01*
X159844556Y-92145796D01*
X159865000Y-92069496D01*
X159865000Y-91990504D01*
X159844556Y-91914204D01*
X159805060Y-91845795D01*
X159749205Y-91789940D01*
X159731988Y-91780000D01*
X160534862Y-91780000D01*
X160526569Y-91738309D01*
X160526569Y-91738307D01*
X160451192Y-91556328D01*
X160451185Y-91556315D01*
X160341751Y-91392537D01*
X160341748Y-91392533D01*
X160202466Y-91253251D01*
X160202462Y-91253248D01*
X160038684Y-91143814D01*
X160038671Y-91143807D01*
X159856693Y-91068430D01*
X159856681Y-91068427D01*
X159663495Y-91030000D01*
X159265000Y-91030000D01*
X159265000Y-91730000D01*
X158765000Y-91730000D01*
X158765000Y-91030000D01*
X158366504Y-91030000D01*
X158173318Y-91068427D01*
X158173306Y-91068430D01*
X157991328Y-91143807D01*
X157991315Y-91143814D01*
X157827537Y-91253248D01*
X157827533Y-91253251D01*
X157688251Y-91392533D01*
X157688248Y-91392537D01*
X157578814Y-91556315D01*
X157578807Y-91556328D01*
X157503430Y-91738307D01*
X157503430Y-91738309D01*
X157495138Y-91780000D01*
X156204862Y-91780000D01*
X156196569Y-91738309D01*
X156196569Y-91738307D01*
X156121192Y-91556328D01*
X156121185Y-91556315D01*
X156011751Y-91392537D01*
X156011748Y-91392533D01*
X155872466Y-91253251D01*
X155872462Y-91253248D01*
X155708684Y-91143814D01*
X155708671Y-91143807D01*
X155526693Y-91068430D01*
X155526681Y-91068427D01*
X155333495Y-91030000D01*
X155085000Y-91030000D01*
X155085000Y-91730000D01*
X154585000Y-91730000D01*
X154585000Y-91030000D01*
X154336504Y-91030000D01*
X154143318Y-91068427D01*
X154143306Y-91068430D01*
X153961328Y-91143807D01*
X153961315Y-91143814D01*
X153797537Y-91253248D01*
X153797533Y-91253251D01*
X153658251Y-91392533D01*
X153658248Y-91392537D01*
X153548814Y-91556315D01*
X153548807Y-91556328D01*
X153473430Y-91738307D01*
X153473430Y-91738309D01*
X153465138Y-91780000D01*
X144100500Y-91780000D01*
X144100500Y-86024994D01*
X150294357Y-86024994D01*
X150294357Y-86025005D01*
X150314890Y-86272812D01*
X150314892Y-86272824D01*
X150375936Y-86513881D01*
X150475826Y-86741606D01*
X150611833Y-86949782D01*
X150611836Y-86949785D01*
X150780256Y-87132738D01*
X150976491Y-87285474D01*
X151014582Y-87306088D01*
X151106885Y-87356040D01*
X151195190Y-87403828D01*
X151430386Y-87484571D01*
X151675665Y-87525500D01*
X151924335Y-87525500D01*
X152169614Y-87484571D01*
X152404810Y-87403828D01*
X152623509Y-87285474D01*
X152819744Y-87132738D01*
X152988164Y-86949785D01*
X153124173Y-86741607D01*
X153224063Y-86513881D01*
X153285108Y-86272821D01*
X153285109Y-86272812D01*
X153305643Y-86025005D01*
X153305643Y-86024994D01*
X153285109Y-85777187D01*
X153285107Y-85777175D01*
X153224063Y-85536118D01*
X153124173Y-85308393D01*
X152988166Y-85100217D01*
X152905346Y-85010251D01*
X152819744Y-84917262D01*
X152623509Y-84764526D01*
X152623507Y-84764525D01*
X152623506Y-84764524D01*
X152404811Y-84646172D01*
X152404802Y-84646169D01*
X152169616Y-84565429D01*
X151924335Y-84524500D01*
X151675665Y-84524500D01*
X151430383Y-84565429D01*
X151195197Y-84646169D01*
X151195188Y-84646172D01*
X150976493Y-84764524D01*
X150780257Y-84917261D01*
X150611833Y-85100217D01*
X150475826Y-85308393D01*
X150375936Y-85536118D01*
X150314892Y-85777175D01*
X150314890Y-85777187D01*
X150294357Y-86024994D01*
X144100500Y-86024994D01*
X144100500Y-77377135D01*
X150299500Y-77377135D01*
X150299500Y-79472870D01*
X150299501Y-79472876D01*
X150305908Y-79532483D01*
X150356202Y-79667328D01*
X150356206Y-79667335D01*
X150442452Y-79782544D01*
X150442455Y-79782547D01*
X150557664Y-79868793D01*
X150557671Y-79868797D01*
X150692517Y-79919091D01*
X150692516Y-79919091D01*
X150699444Y-79919835D01*
X150752127Y-79925500D01*
X152847872Y-79925499D01*
X152907483Y-79919091D01*
X153042331Y-79868796D01*
X153157546Y-79782546D01*
X153243796Y-79667331D01*
X153294091Y-79532483D01*
X153300500Y-79472873D01*
X153300499Y-77377128D01*
X153294091Y-77317517D01*
X153284777Y-77292546D01*
X153243797Y-77182671D01*
X153243793Y-77182664D01*
X153157547Y-77067455D01*
X153157544Y-77067452D01*
X153042335Y-76981206D01*
X153042328Y-76981202D01*
X152907482Y-76930908D01*
X152907483Y-76930908D01*
X152847883Y-76924501D01*
X152847881Y-76924500D01*
X152847873Y-76924500D01*
X152847864Y-76924500D01*
X150752129Y-76924500D01*
X150752123Y-76924501D01*
X150692516Y-76930908D01*
X150557671Y-76981202D01*
X150557664Y-76981206D01*
X150442455Y-77067452D01*
X150442452Y-77067455D01*
X150356206Y-77182664D01*
X150356202Y-77182671D01*
X150305908Y-77317517D01*
X150299501Y-77377116D01*
X150299501Y-77377123D01*
X150299500Y-77377135D01*
X144100500Y-77377135D01*
X144100500Y-69355158D01*
X152164500Y-69355158D01*
X152164500Y-69494842D01*
X152191453Y-69595431D01*
X152200652Y-69629764D01*
X152200653Y-69629767D01*
X152219367Y-69662180D01*
X152270494Y-69750735D01*
X152369265Y-69849506D01*
X152490235Y-69919348D01*
X152625158Y-69955500D01*
X152625160Y-69955500D01*
X152764840Y-69955500D01*
X152764842Y-69955500D01*
X152899765Y-69919348D01*
X153020735Y-69849506D01*
X153119506Y-69750735D01*
X153189348Y-69629765D01*
X153225500Y-69494842D01*
X153225500Y-69355158D01*
X153964500Y-69355158D01*
X153964500Y-69494842D01*
X153991453Y-69595431D01*
X154000652Y-69629764D01*
X154000653Y-69629767D01*
X154019367Y-69662180D01*
X154070494Y-69750735D01*
X154169265Y-69849506D01*
X154290235Y-69919348D01*
X154425158Y-69955500D01*
X154425160Y-69955500D01*
X154564840Y-69955500D01*
X154564842Y-69955500D01*
X154699765Y-69919348D01*
X154820735Y-69849506D01*
X154919506Y-69750735D01*
X154989348Y-69629765D01*
X155025500Y-69494842D01*
X155025500Y-69355158D01*
X154989348Y-69220235D01*
X154919506Y-69099265D01*
X154820735Y-69000494D01*
X154699765Y-68930652D01*
X154564842Y-68894500D01*
X154425158Y-68894500D01*
X154290235Y-68930652D01*
X154290232Y-68930653D01*
X154169263Y-69000495D01*
X154070495Y-69099263D01*
X154000653Y-69220232D01*
X154000652Y-69220235D01*
X153964500Y-69355158D01*
X153225500Y-69355158D01*
X153189348Y-69220235D01*
X153119506Y-69099265D01*
X153020735Y-69000494D01*
X152899765Y-68930652D01*
X152764842Y-68894500D01*
X152625158Y-68894500D01*
X152490235Y-68930652D01*
X152490232Y-68930653D01*
X152369263Y-69000495D01*
X152270495Y-69099263D01*
X152200653Y-69220232D01*
X152200652Y-69220235D01*
X152164500Y-69355158D01*
X144100500Y-69355158D01*
X144100500Y-63830158D01*
X152159500Y-63830158D01*
X152159500Y-63969842D01*
X152195652Y-64104765D01*
X152265494Y-64225735D01*
X152364265Y-64324506D01*
X152485235Y-64394348D01*
X152620158Y-64430500D01*
X152620160Y-64430500D01*
X152759840Y-64430500D01*
X152759842Y-64430500D01*
X152894765Y-64394348D01*
X153015735Y-64324506D01*
X153114506Y-64225735D01*
X153184348Y-64104765D01*
X153220500Y-63969842D01*
X153220500Y-63830158D01*
X153959500Y-63830158D01*
X153959500Y-63969842D01*
X153995652Y-64104765D01*
X154065494Y-64225735D01*
X154164265Y-64324506D01*
X154285235Y-64394348D01*
X154420158Y-64430500D01*
X154420160Y-64430500D01*
X154495798Y-64430500D01*
X154562837Y-64450185D01*
X154608592Y-64502989D01*
X154618536Y-64572147D01*
X154612840Y-64595455D01*
X154578131Y-64694645D01*
X154578130Y-64694650D01*
X154557935Y-64873896D01*
X154557935Y-64873903D01*
X154578130Y-65053149D01*
X154578131Y-65053154D01*
X154637711Y-65223423D01*
X154695792Y-65315858D01*
X154733684Y-65376162D01*
X154861238Y-65503716D01*
X155013978Y-65599689D01*
X155184245Y-65659268D01*
X155245384Y-65666156D01*
X155309796Y-65693221D01*
X155349352Y-65750815D01*
X155355500Y-65789376D01*
X155355500Y-74351787D01*
X155335815Y-74418826D01*
X155328450Y-74429096D01*
X155326186Y-74431934D01*
X155230211Y-74584676D01*
X155170631Y-74754945D01*
X155170630Y-74754950D01*
X155150435Y-74934196D01*
X155150435Y-74934203D01*
X155170630Y-75113449D01*
X155170631Y-75113454D01*
X155230211Y-75283723D01*
X155324612Y-75433960D01*
X155326184Y-75436462D01*
X155453738Y-75564016D01*
X155606478Y-75659989D01*
X155776745Y-75719568D01*
X155776750Y-75719569D01*
X155955996Y-75739765D01*
X155956000Y-75739765D01*
X155956004Y-75739765D01*
X156135249Y-75719569D01*
X156135252Y-75719568D01*
X156135255Y-75719568D01*
X156305522Y-75659989D01*
X156458262Y-75564016D01*
X156585816Y-75436462D01*
X156681789Y-75283722D01*
X156741368Y-75113455D01*
X156754977Y-74992671D01*
X156761565Y-74934203D01*
X156761565Y-74934196D01*
X156741369Y-74754950D01*
X156741368Y-74754945D01*
X156730986Y-74725274D01*
X156681789Y-74584678D01*
X156585816Y-74431938D01*
X156585814Y-74431936D01*
X156585813Y-74431934D01*
X156583550Y-74429096D01*
X156582659Y-74426915D01*
X156582111Y-74426042D01*
X156582264Y-74425945D01*
X156557144Y-74364409D01*
X156556500Y-74351787D01*
X156556500Y-65555460D01*
X156556501Y-65555447D01*
X156556501Y-65387344D01*
X156537346Y-65315858D01*
X156515577Y-65234616D01*
X156497855Y-65203920D01*
X156436524Y-65097690D01*
X156436518Y-65097682D01*
X156194200Y-64855365D01*
X156160715Y-64794042D01*
X156158663Y-64781586D01*
X156148868Y-64694645D01*
X156089289Y-64524378D01*
X155993316Y-64371638D01*
X155865762Y-64244084D01*
X155713023Y-64148111D01*
X155542754Y-64088531D01*
X155542749Y-64088530D01*
X155363504Y-64068335D01*
X155363496Y-64068335D01*
X155184250Y-64088530D01*
X155177453Y-64090082D01*
X155177100Y-64088536D01*
X155115664Y-64091666D01*
X155055040Y-64056932D01*
X155033247Y-64014999D01*
X156944341Y-64014999D01*
X156944341Y-64015000D01*
X156964936Y-64250403D01*
X156964938Y-64250413D01*
X157026094Y-64478655D01*
X157026096Y-64478659D01*
X157026097Y-64478663D01*
X157125965Y-64692830D01*
X157125967Y-64692834D01*
X157261501Y-64886395D01*
X157261506Y-64886402D01*
X157428597Y-65053493D01*
X157428603Y-65053498D01*
X157614158Y-65183425D01*
X157657783Y-65238002D01*
X157664977Y-65307500D01*
X157633454Y-65369855D01*
X157614158Y-65386575D01*
X157428597Y-65516505D01*
X157261505Y-65683597D01*
X157125965Y-65877169D01*
X157125964Y-65877171D01*
X157026098Y-66091335D01*
X157026094Y-66091344D01*
X156964938Y-66319586D01*
X156964936Y-66319596D01*
X156944341Y-66554999D01*
X156944341Y-66555000D01*
X156964936Y-66790403D01*
X156964938Y-66790413D01*
X157026094Y-67018655D01*
X157026096Y-67018659D01*
X157026097Y-67018663D01*
X157123568Y-67227690D01*
X157125965Y-67232830D01*
X157125967Y-67232834D01*
X157221170Y-67368797D01*
X157260873Y-67425499D01*
X157261501Y-67426395D01*
X157261506Y-67426402D01*
X157428597Y-67593493D01*
X157428603Y-67593498D01*
X157614158Y-67723425D01*
X157657783Y-67778002D01*
X157664977Y-67847500D01*
X157633454Y-67909855D01*
X157614158Y-67926575D01*
X157428597Y-68056505D01*
X157261505Y-68223597D01*
X157125965Y-68417169D01*
X157125964Y-68417171D01*
X157026098Y-68631335D01*
X157026094Y-68631344D01*
X156964938Y-68859586D01*
X156964936Y-68859596D01*
X156944341Y-69094999D01*
X156944341Y-69095000D01*
X156964936Y-69330403D01*
X156964938Y-69330413D01*
X157026094Y-69558655D01*
X157026096Y-69558659D01*
X157026097Y-69558663D01*
X157065092Y-69642287D01*
X157125965Y-69772830D01*
X157125967Y-69772834D01*
X157179654Y-69849506D01*
X157261505Y-69966401D01*
X157428599Y-70133495D01*
X157580135Y-70239602D01*
X157614594Y-70263730D01*
X157658219Y-70318307D01*
X157665413Y-70387805D01*
X157633890Y-70450160D01*
X157614595Y-70466880D01*
X157428922Y-70596890D01*
X157428920Y-70596891D01*
X157261891Y-70763920D01*
X157261886Y-70763926D01*
X157126400Y-70957420D01*
X157126399Y-70957422D01*
X157026570Y-71171507D01*
X157026567Y-71171513D01*
X156969364Y-71384999D01*
X156969364Y-71385000D01*
X157866988Y-71385000D01*
X157834075Y-71442007D01*
X157800000Y-71569174D01*
X157800000Y-71700826D01*
X157834075Y-71827993D01*
X157866988Y-71885000D01*
X156969364Y-71885000D01*
X157026567Y-72098486D01*
X157026570Y-72098492D01*
X157126399Y-72312578D01*
X157261894Y-72506082D01*
X157428917Y-72673105D01*
X157622421Y-72808600D01*
X157836507Y-72908429D01*
X157836516Y-72908433D01*
X158050000Y-72965634D01*
X158050000Y-72068012D01*
X158107007Y-72100925D01*
X158234174Y-72135000D01*
X158365826Y-72135000D01*
X158492993Y-72100925D01*
X158550000Y-72068012D01*
X158550000Y-72965633D01*
X158763483Y-72908433D01*
X158763492Y-72908429D01*
X158977578Y-72808600D01*
X159171082Y-72673105D01*
X159338105Y-72506082D01*
X159473600Y-72312578D01*
X159573429Y-72098492D01*
X159573432Y-72098486D01*
X159630636Y-71885000D01*
X158733012Y-71885000D01*
X158765925Y-71827993D01*
X158800000Y-71700826D01*
X158800000Y-71569174D01*
X158765925Y-71442007D01*
X158733012Y-71385000D01*
X159630636Y-71385000D01*
X159630635Y-71384999D01*
X159573432Y-71171513D01*
X159573429Y-71171507D01*
X159473600Y-70957422D01*
X159473599Y-70957420D01*
X159338113Y-70763926D01*
X159338108Y-70763920D01*
X159171078Y-70596890D01*
X158985405Y-70466879D01*
X158941780Y-70412302D01*
X158934588Y-70342804D01*
X158966110Y-70280449D01*
X158985406Y-70263730D01*
X159171401Y-70133495D01*
X159338495Y-69966401D01*
X159474035Y-69772830D01*
X159573903Y-69558663D01*
X159635063Y-69330408D01*
X159655659Y-69095000D01*
X159635063Y-68859592D01*
X159573903Y-68631337D01*
X159474035Y-68417171D01*
X159471127Y-68413017D01*
X159338494Y-68223597D01*
X159171402Y-68056506D01*
X159171396Y-68056501D01*
X158985842Y-67926575D01*
X158942217Y-67871998D01*
X158935023Y-67802500D01*
X158966546Y-67740145D01*
X158985842Y-67723425D01*
X159059283Y-67672001D01*
X159171401Y-67593495D01*
X159338495Y-67426401D01*
X159474035Y-67232830D01*
X159573903Y-67018663D01*
X159635063Y-66790408D01*
X159655659Y-66555000D01*
X159635063Y-66319592D01*
X159578964Y-66110224D01*
X159573905Y-66091344D01*
X159573904Y-66091343D01*
X159573903Y-66091337D01*
X159474035Y-65877171D01*
X159462750Y-65861053D01*
X159338494Y-65683597D01*
X159171402Y-65516506D01*
X159171396Y-65516501D01*
X158985842Y-65386575D01*
X158942217Y-65331998D01*
X158935023Y-65262500D01*
X158966546Y-65200145D01*
X158985842Y-65183425D01*
X159039730Y-65145692D01*
X159171401Y-65053495D01*
X159338495Y-64886401D01*
X159474035Y-64692830D01*
X159573903Y-64478663D01*
X159635063Y-64250408D01*
X159655659Y-64015000D01*
X159635063Y-63779592D01*
X159588626Y-63606285D01*
X159573905Y-63551344D01*
X159573904Y-63551343D01*
X159573903Y-63551337D01*
X159474035Y-63337171D01*
X159455094Y-63310121D01*
X159338496Y-63143600D01*
X159325972Y-63131076D01*
X159216567Y-63021671D01*
X159183084Y-62960351D01*
X159188068Y-62890659D01*
X159229939Y-62834725D01*
X159260915Y-62817810D01*
X159392331Y-62768796D01*
X159507546Y-62682546D01*
X159593796Y-62567331D01*
X159644091Y-62432483D01*
X159650500Y-62372873D01*
X159650499Y-60577128D01*
X159644091Y-60517517D01*
X159608877Y-60423104D01*
X159593797Y-60382671D01*
X159593793Y-60382664D01*
X159507547Y-60267455D01*
X159507544Y-60267452D01*
X159392335Y-60181206D01*
X159392328Y-60181202D01*
X159257482Y-60130908D01*
X159257483Y-60130908D01*
X159197883Y-60124501D01*
X159197881Y-60124500D01*
X159197873Y-60124500D01*
X159197864Y-60124500D01*
X157402129Y-60124500D01*
X157402123Y-60124501D01*
X157342516Y-60130908D01*
X157207671Y-60181202D01*
X157207664Y-60181206D01*
X157092455Y-60267452D01*
X157092452Y-60267455D01*
X157006206Y-60382664D01*
X157006202Y-60382671D01*
X156955908Y-60517517D01*
X156949501Y-60577116D01*
X156949501Y-60577123D01*
X156949500Y-60577135D01*
X156949500Y-62372870D01*
X156949501Y-62372876D01*
X156955908Y-62432483D01*
X157006202Y-62567328D01*
X157006206Y-62567335D01*
X157092452Y-62682544D01*
X157092455Y-62682547D01*
X157207664Y-62768793D01*
X157207671Y-62768797D01*
X157339081Y-62817810D01*
X157395015Y-62859681D01*
X157419432Y-62925145D01*
X157404580Y-62993418D01*
X157383430Y-63021673D01*
X157261503Y-63143600D01*
X157125965Y-63337169D01*
X157125964Y-63337171D01*
X157026098Y-63551335D01*
X157026094Y-63551344D01*
X156964938Y-63779586D01*
X156964936Y-63779596D01*
X156944341Y-64014999D01*
X155033247Y-64014999D01*
X155022819Y-63994935D01*
X155020500Y-63971066D01*
X155020500Y-63830160D01*
X155020500Y-63830158D01*
X154984348Y-63695235D01*
X154914506Y-63574265D01*
X154815735Y-63475494D01*
X154727180Y-63424367D01*
X154694767Y-63405653D01*
X154694766Y-63405652D01*
X154694765Y-63405652D01*
X154559842Y-63369500D01*
X154420158Y-63369500D01*
X154285235Y-63405652D01*
X154285232Y-63405653D01*
X154164263Y-63475495D01*
X154065495Y-63574263D01*
X153995653Y-63695232D01*
X153995652Y-63695235D01*
X153959500Y-63830158D01*
X153220500Y-63830158D01*
X153184348Y-63695235D01*
X153114506Y-63574265D01*
X153015735Y-63475494D01*
X152927180Y-63424367D01*
X152894767Y-63405653D01*
X152894766Y-63405652D01*
X152894765Y-63405652D01*
X152759842Y-63369500D01*
X152620158Y-63369500D01*
X152485235Y-63405652D01*
X152485232Y-63405653D01*
X152364263Y-63475495D01*
X152265495Y-63574263D01*
X152195653Y-63695232D01*
X152195652Y-63695235D01*
X152159500Y-63830158D01*
X144100500Y-63830158D01*
X144100500Y-59958306D01*
X145744500Y-59958306D01*
X145744500Y-60191693D01*
X145744501Y-60191709D01*
X145774964Y-60423100D01*
X145835375Y-60648555D01*
X145924690Y-60864181D01*
X145924695Y-60864192D01*
X146041387Y-61066307D01*
X146041398Y-61066323D01*
X146183475Y-61251482D01*
X146183481Y-61251489D01*
X146348510Y-61416518D01*
X146348517Y-61416524D01*
X146435947Y-61483611D01*
X146533685Y-61558608D01*
X146533692Y-61558612D01*
X146735807Y-61675304D01*
X146735812Y-61675306D01*
X146735815Y-61675308D01*
X146856529Y-61725309D01*
X146941270Y-61760410D01*
X146951449Y-61764626D01*
X147176896Y-61825035D01*
X147408300Y-61855500D01*
X147408307Y-61855500D01*
X147641693Y-61855500D01*
X147641700Y-61855500D01*
X147873104Y-61825035D01*
X148098551Y-61764626D01*
X148314185Y-61675308D01*
X148516315Y-61558608D01*
X148701484Y-61416523D01*
X148866523Y-61251484D01*
X149008608Y-61066315D01*
X149125308Y-60864185D01*
X149214626Y-60648551D01*
X149275035Y-60423104D01*
X149305500Y-60191700D01*
X149305500Y-59958300D01*
X149275035Y-59726896D01*
X149214626Y-59501449D01*
X149125308Y-59285815D01*
X149125306Y-59285812D01*
X149125304Y-59285807D01*
X149008612Y-59083692D01*
X149008608Y-59083685D01*
X148866523Y-58898516D01*
X148866518Y-58898510D01*
X148701489Y-58733481D01*
X148701482Y-58733475D01*
X148516323Y-58591398D01*
X148516321Y-58591396D01*
X148516315Y-58591392D01*
X148516310Y-58591389D01*
X148516307Y-58591387D01*
X148314192Y-58474695D01*
X148314181Y-58474690D01*
X148098555Y-58385375D01*
X147985827Y-58355169D01*
X147873104Y-58324965D01*
X147873103Y-58324964D01*
X147873100Y-58324964D01*
X147641709Y-58294501D01*
X147641706Y-58294500D01*
X147641700Y-58294500D01*
X147408300Y-58294500D01*
X147408294Y-58294500D01*
X147408290Y-58294501D01*
X147176899Y-58324964D01*
X146951444Y-58385375D01*
X146735818Y-58474690D01*
X146735807Y-58474695D01*
X146533692Y-58591387D01*
X146533676Y-58591398D01*
X146348517Y-58733475D01*
X146348510Y-58733481D01*
X146183481Y-58898510D01*
X146183475Y-58898517D01*
X146041398Y-59083676D01*
X146041387Y-59083692D01*
X145924695Y-59285807D01*
X145924690Y-59285818D01*
X145835375Y-59501444D01*
X145774964Y-59726899D01*
X145744501Y-59958290D01*
X145744500Y-59958306D01*
X144100500Y-59958306D01*
X144100500Y-49199500D01*
X144120185Y-49132461D01*
X144172989Y-49086706D01*
X144224500Y-49075500D01*
X146551000Y-49075500D01*
X146618039Y-49095185D01*
G37*
%TD.AperFunction*%
%TD*%
M02*
