M48
; DRILL file {KiCad 8.0.3} date 2026-08-17T16:02:00+0530
; FORMAT={-:-/ absolute / metric / decimal}
; #@! TF.CreationDate,2026-08-17T16:02:00+05:30
; #@! TF.GenerationSoftware,Kicad,Pcbnew,8.0.3
; #@! TF.FileFunction,MixedPlating,1,4
FMAT,2
METRIC
; #@! TA.AperFunction,Plated,PTH,ViaDrill
T1C0.200
; #@! TA.AperFunction,Plated,PTH,ComponentDrill
T2C0.200
; #@! TA.AperFunction,Plated,PTH,ViaDrill
T3C0.300
; #@! TA.AperFunction,Plated,PTH,ViaDrill
T4C0.500
; #@! TA.AperFunction,Plated,PTH,ComponentDrill
T5C0.600
; #@! TA.AperFunction,Plated,PTH,ComponentDrill
T6C1.000
; #@! TA.AperFunction,Plated,PTH,ComponentDrill
T7C1.600
; #@! TA.AperFunction,NonPlated,NPTH,ComponentDrill
T8C0.650
; #@! TA.AperFunction,NonPlated,NPTH,ComponentDrill
T9C3.200
%
G90
G05
T1
X163.118Y-58.345
X163.532Y-76.387
X163.9Y-88.003
X166.192Y-94.208
X166.245Y-91.805
X166.631Y-60.885
X167.168Y-93.888
X168.859Y-62.155
X172.688Y-79.541
X176.205Y-68.505
X176.806Y-81.716
X177.0Y-87.574
X177.475Y-63.425
X180.197Y-86.659
X180.611Y-69.775
X180.614Y-60.44
X181.303Y-79.958
X205.503Y-75.407
X208.315Y-70.052
T2
X167.775Y-64.095
X167.775Y-65.495
X168.475Y-63.395
X168.475Y-64.795
X168.475Y-66.195
X169.15Y-64.095
X169.15Y-65.495
X169.875Y-63.395
X169.875Y-64.795
X169.875Y-66.195
X170.575Y-64.095
X170.575Y-65.495
T3
X156.37Y-91.675
X156.37Y-96.475
X156.781Y-87.414
X157.089Y-88.977
X157.698Y-88.358
X163.669Y-60.885
X164.091Y-78.538
X165.879Y-65.09
X166.559Y-90.445
X168.379Y-67.68
X170.575Y-72.54
X173.976Y-85.347
X177.003Y-88.308
X177.587Y-90.638
X178.313Y-89.063
X180.701Y-72.315
X187.68Y-101.75
X187.838Y-81.75
X188.721Y-90.582
X189.079Y-92.336
X191.58Y-97.2
X191.931Y-87.29
X196.882Y-85.804
X196.882Y-94.175
X205.216Y-70.104
T4
X170.573Y-86.495
T6
X153.125Y-78.475
X153.125Y-86.075
X158.3Y-61.475
X158.3Y-64.015
X158.3Y-66.555
X158.3Y-69.095
X158.3Y-71.635
X171.125Y-77.875
X173.665Y-77.875
X176.205Y-77.875
X178.745Y-77.875
X183.45Y-58.305
X183.45Y-60.845
X183.45Y-63.385
X183.45Y-65.925
X183.45Y-68.465
X183.45Y-71.005
X183.45Y-73.545
X183.45Y-76.085
X202.575Y-66.075
X205.115Y-66.075
X207.655Y-66.075
T7
X190.6Y-69.125
X195.6Y-69.125
T8
X154.215Y-91.185
X154.215Y-96.965
T9
X148.925Y-59.65
X208.975Y-98.2
X209.05Y-59.975
T5
G00X150.935Y-89.755
M15
G01X150.135Y-89.755
M16
G05
G00X150.935Y-98.395
M15
G01X150.135Y-98.395
M16
G05
G00X155.265Y-89.755
M15
G01X154.165Y-89.755
M16
G05
G00X155.265Y-98.395
M15
G01X154.165Y-98.395
M16
G05
M30
